<?xml version="1.0" encoding="utf-8"?>
<!-- Generator: Adobe Illustrator 27.0.0, SVG Export Plug-In . SVG Version: 6.00 Build 0)  -->
<svg version="1.1" id="圖層_1" xmlns="http://www.w3.org/2000/svg" xmlns:xlink="http://www.w3.org/1999/xlink" x="0px" y="0px"
	 viewBox="0 0 100 100" style="enable-background:new 0 0 100 100;" xml:space="preserve">
<style type="text/css">
	.st0{fill:#FFFFFF;}
	.st1{fill:#ED4C3D;}
</style>
<g>
	<path class="st0" d="M64.4,54.3v-9.7H53v-7.9c0-1.3,0.3-2.4,0.8-3.2c0.6-0.8,1.4-1.2,2.4-1.2h8.1V21.5h-8.3
		c-4.9,0-8.5,1.3-10.9,3.8c-2.4,2.5-3.5,6.4-3.5,11.5v7.8h-6.1v9.7h6.1v24.9H53V54.3H64.4z"/>
</g>
<g>
	<circle class="st1" cx="50" cy="50" r="50"/>
	<path class="st0" d="M70.7,42.2c0-11.5-9.4-20.8-20.9-20.7c-11.3,0.1-20.5,9.3-20.6,20.6c0,3.5,0.8,6.8,2.3,9.7c0,0,0,0,0,0
		s0,0,0,0c0.3,0.6,0.6,1.1,0.9,1.6l0.5,0.8c3.3,5.5,11.5,18.7,15.5,23.6c0,0.1,0.1,0.1,0.1,0.1c0,0,0,0,0,0c0,0,0,0,0,0
		c0.7,0.7,1.7,0.7,2.5,0.2c0,0,0,0,0,0c0,0,0,0,0,0c0.1-0.1,0.3-0.3,0.4-0.4l0.2-0.3C55.9,72,63.9,59.2,67,54.1l0.5-0.7
		c0.3-0.5,0.6-0.9,0.8-1.4c0,0,0,0,0,0s0,0,0,0C69.9,49,70.7,45.7,70.7,42.2z M50,50.9c-4.8,0-8.7-3.9-8.7-8.7
		c0-4.8,3.9-8.7,8.7-8.7c4.8,0,8.7,3.9,8.7,8.7C58.7,47,54.8,50.9,50,50.9z"/>
</g>
</svg>
