<?xml version="1.0" encoding="utf-8"?>
<!-- Generator: Adobe Illustrator 27.0.0, SVG Export Plug-In . SVG Version: 6.00 Build 0)  -->
<svg version="1.1" id="圖層_1" xmlns="http://www.w3.org/2000/svg" xmlns:xlink="http://www.w3.org/1999/xlink" x="0px" y="0px"
	 viewBox="0 0 100 100" style="enable-background:new 0 0 100 100;" xml:space="preserve">
<style type="text/css">
	.st0{fill:#06C755;}
	.st1{fill:#FFFFFF;}
</style>
<g>
	<path class="st0" d="M50,99L50,99C22.94,99,1,77.06,1,50v0C1,22.94,22.94,1,50,1h0c27.06,0,49,21.94,49,49v0
		C99,77.06,77.06,99,50,99z"/>
	<g>
		<g>
			<g>
				<path class="st1" d="M78.73,45.94c0-12.86-12.89-23.32-28.74-23.32c-15.85,0-28.74,10.46-28.74,23.32
					c0,11.53,10.22,21.18,24.04,23.01c0.94,0.2,2.21,0.62,2.53,1.42c0.29,0.73,0.19,1.86,0.09,2.6c0,0-0.34,2.03-0.41,2.46
					c-0.13,0.73-0.58,2.84,2.49,1.55c3.07-1.29,16.55-9.75,22.58-16.69h0C76.73,55.72,78.73,51.09,78.73,45.94z"/>
			</g>
			<g>
				<path class="st0" d="M69.17,53.36H61.1h-0.01c-0.3,0-0.55-0.25-0.55-0.55v-0.01v0V40.29v0v-0.01c0-0.3,0.25-0.55,0.55-0.55h0.01
					h8.06c0.3,0,0.55,0.25,0.55,0.55v2.04c0,0.3-0.25,0.55-0.55,0.55h-5.49v2.12h5.49c0.3,0,0.55,0.25,0.55,0.55v2.04
					c0,0.3-0.25,0.55-0.55,0.55h-5.49v2.12h5.49c0.3,0,0.55,0.25,0.55,0.55v2.04C69.72,53.12,69.47,53.36,69.17,53.36z"/>
				<path class="st0" d="M39.3,53.36c0.3,0,0.55-0.25,0.55-0.55v-2.04c0-0.3-0.25-0.55-0.55-0.55h-5.49v-9.96
					c0-0.3-0.25-0.55-0.55-0.55h-2.04c-0.3,0-0.55,0.25-0.55,0.55v12.53v0v0.01c0,0.3,0.25,0.55,0.55,0.55h0.01H39.3z"/>
				<path class="st0" d="M44.16,39.72h-2.04c-0.3,0-0.55,0.25-0.55,0.55v12.54c0,0.3,0.25,0.55,0.55,0.55h2.04
					c0.3,0,0.55-0.25,0.55-0.55V40.27C44.71,39.97,44.47,39.72,44.16,39.72z"/>
				<path class="st0" d="M58.04,39.72H56c-0.3,0-0.55,0.25-0.55,0.55v7.45l-5.74-7.75c-0.01-0.02-0.03-0.04-0.04-0.06c0,0,0,0,0,0
					c-0.01-0.01-0.02-0.02-0.03-0.03c0,0-0.01-0.01-0.01-0.01c-0.01-0.01-0.02-0.02-0.03-0.03c0,0-0.01-0.01-0.01-0.01
					c-0.01-0.01-0.02-0.01-0.03-0.02c-0.01,0-0.01-0.01-0.02-0.01c-0.01-0.01-0.02-0.01-0.03-0.02c-0.01,0-0.01-0.01-0.02-0.01
					c-0.01,0-0.02-0.01-0.03-0.01c-0.01,0-0.01,0-0.02-0.01c-0.01,0-0.02-0.01-0.03-0.01c-0.01,0-0.01,0-0.02,0
					c-0.01,0-0.02-0.01-0.03-0.01c-0.01,0-0.02,0-0.02,0c-0.01,0-0.02,0-0.03,0c-0.01,0-0.02,0-0.03,0c-0.01,0-0.01,0-0.02,0h-2.03
					c-0.3,0-0.55,0.25-0.55,0.55v12.54c0,0.3,0.25,0.55,0.55,0.55h2.04c0.3,0,0.55-0.25,0.55-0.55v-7.45l5.75,7.76
					c0.04,0.06,0.09,0.1,0.14,0.14c0,0,0,0,0.01,0c0.01,0.01,0.02,0.01,0.03,0.02c0.01,0,0.01,0.01,0.02,0.01
					c0.01,0,0.02,0.01,0.03,0.01c0.01,0,0.02,0.01,0.03,0.01c0.01,0,0.01,0,0.02,0.01c0.01,0,0.02,0.01,0.04,0.01c0,0,0.01,0,0.01,0
					c0.05,0.01,0.09,0.02,0.14,0.02h2.03c0.3,0,0.55-0.25,0.55-0.55V40.27C58.59,39.97,58.34,39.72,58.04,39.72z"/>
			</g>
		</g>
	</g>
</g>
</svg>
