<?xml version="1.0" encoding="utf-8"?>
<!-- Generator: Adobe Illustrator 27.7.0, SVG Export Plug-In . SVG Version: 6.00 Build 0)  -->
<svg version="1.1" id="圖層_1" xmlns="http://www.w3.org/2000/svg" xmlns:xlink="http://www.w3.org/1999/xlink" x="0px" y="0px"
	 viewBox="0 0 181 150" style="enable-background:new 0 0 181 150;" xml:space="preserve">
<style type="text/css">
	.st0{fill:#231815;}
	.st1{fill:none;stroke:#717071;stroke-width:0.5;stroke-miterlimit:10;}
</style>
<g>
	<path d="M140.41,32.07c2.62-0.44,5.24-0.88,7.86-1.32c2.5-0.42,2.37-2.67,2.62-5.25c0.2-2.06,0.41-4.13,0.61-6.19
		c0.15-1.51-0.04-4,0.57-5.35c0.2-0.44,0.57-0.8,0.97-0.77c0.45,0.02,0.79,0.47,1.13,0.82c0.79,0.81,1.81,1.24,2.57,2.11
		c1.45,1.65,1,3.42,0.85,5.49c-0.19,2.75-0.23,5.72,0.25,8.42c2.96-0.01,5.93-0.07,8.89-0.18c4.15-0.15,3.83-4.92,4.22-8.82
		c0.29-2.96,0.43-5.95,0.62-8.92c0.37-5.94,6.73-0.38,8.05,1.94c1.51,2.65,1.3,6.2,1.03,9.43c-0.58,6.94-0.2,14.83-3,21.05
		c-1.68,3.74-2.96,2.83-5.77,1.29c-0.87-0.48-1.87-1.21-1.86-2.38c0-0.35,0.11-0.69,0.19-1.02c0.33-1.32,0.37-2.75,0.12-4.1
		c-0.03-0.16-0.07-0.33-0.17-0.44c-0.12-0.13-0.29-0.15-0.45-0.16c-3.39-0.2-6.9,0.75-10.3,0.96c-3.56,0.23-7.12,0.35-10.66,0.89
		c-2.66,0.41-5.31,0.91-7.95,1.49c-1.8,0.4-4.77,1.94-6.58,1.39c-0.55-0.16-0.98-0.68-1.37-1.18c-0.63-0.79-1.26-1.57-1.89-2.36
		c-0.32-0.41-0.65-0.82-0.85-1.34c-0.23-0.62-0.24-1.32-0.26-2c-0.09-4.07-2.86-14.93,1.9-16.43c1.66,1.74,4.36,1.76,5.56,4.01
		c0.54,1.01,0.64,2.27,0.73,3.47c0.1,1.35,0.2,2.7,0.29,4.06c0.03,0.45,0.08,0.94,0.35,1.25c0.32,0.36,0.81,0.31,1.24,0.24
		C140.09,32.13,140.25,32.1,140.41,32.07z"/>
	<g>
		<path d="M14.62,10.32c4.24-1.61,8.88-2.95,13.39-3.44c0.81-0.09,1.69-0.13,2.36,0.33c0.39,0.27,0.66,0.68,0.91,1.08
			c0.9,1.46,2.02,3.15,2.54,4.77c0.63,2.06,0.87,4.21,0.53,6.35c-0.28,1.8-1.14,3.22-1.34,5.03c-0.05,0.48-0.12,0.99-0.46,1.33
			c-0.41,0.42-1.07,0.43-1.66,0.44c-3.39,0.04-6.2,1.28-9.44,2.06c-0.74,0.18-1.19,0.77-1.33,1.47c-0.25,1.19-1.88,2.31-0.9,3.42
			c0.72,0.8,2.15-0.12,3.26-0.31c1.94-0.33,3.89-0.61,5.84-0.84c1.06-0.13,2.07,0.24,3.02,0.68c1.26,0.59,1.97,1.58,1.82,3.05
			c-0.13,1.27-0.22,2.54-0.36,3.8c-0.13,1.15-0.41,2.3-0.4,3.44c0.01,1.13-0.53,2-0.94,2.94c-0.31,0.71-1.02,0.95-1.7,0.41
			c-1.74-1.3-2.76-0.47-4.56-0.07c-1.42,0.32-3.07,0.22-4.55,0.44c-0.85,0.12-1.83,0.2-2.43-0.41c-0.42-0.43-0.51-1.09-0.61-1.68
			c-0.34-2-1.35-3.64-1.62-5.63c-1.93,0.83-3.11,2.23-4.07,3.73c-1.74,2.73-4.34,4.09-7.3,4.93c-0.55,0.16-1.14,0.25-1.71,0.24
			c-2.73-0.05-3.02-2.95-2.57-5c0.13-0.58,0.25-1.16,0.38-1.73c0.02-0.1,0.05-0.2,0.12-0.27c0.1-0.1,0.25-0.1,0.38-0.1
			c1.66,0,3.15,0.24,4.65-0.51c1.3-0.65,2.48-1.52,3.55-2.51c1.45-1.35,2.66-2.92,3.76-4.55c0.5-0.74,1.14-1.52,1.47-2.35
			c0.1-0.26,0.33-2.23,0.27-2.21c-0.95,0.37-2.23,0.07-2.63-0.87c-0.12-0.29-0.15-0.61-0.18-0.92c-0.1-1.12-0.21-2.24-0.31-3.36
			c-0.01-0.08-0.01-0.16,0.02-0.22c0.06-0.12,0.22-0.15,0.35-0.16c1.68-0.16,3.78,0.29,5.31-0.6c0.61-0.35,1.41-1.13,1.15-1.93
			c-0.42-1.27-1.77-0.38-2.67-0.57c-0.86-0.17-1.16-1.22-1.31-2.08c-0.02-0.14-0.04-0.29,0.04-0.41c0.08-0.12,0.24-0.16,0.39-0.18
			c0.73-0.1,1.48-0.1,2.21-0.23c1.88-0.31,3.71-3.42,0.54-2.74c-0.75,0.16-1.62,0.29-2.19-0.22c-0.22-0.19-0.36-0.46-0.5-0.72
			c-0.34-0.64-0.68-1.28-1.02-1.92c-0.15-0.28-0.29-0.65-0.09-0.9c0.09-0.11,0.23-0.17,0.36-0.22
			C14.47,10.38,14.55,10.35,14.62,10.32z M20.41,39.78c0.02,1.71,0.61,2.17,2.38,1.89c1.45-0.23,2.63-0.83,3.16-2.28
			c0.27-0.73,0.85-1.58,0.36-2.28c-0.61-0.85-1.65-0.57-2.55-0.4c-0.56,0.11-1.12,0.26-1.65,0.46
			C20.73,37.69,20.4,38.23,20.41,39.78z M25.28,21.44c1.3-0.03,3.71,0.17,3.27-1.59c-0.3-1.2-0.75-1.79-1.39-1.63
			c-1.23,0.32-2.41,0.71-3.44,1.48c0.23,0.46,0.46,0.92,0.69,1.38c0.06,0.13,0.14,0.27,0.27,0.33c0.1,0.05,0.22,0.05,0.34,0.04
			C25.1,21.45,25.18,21.44,25.28,21.44z M28.92,13.72c0.04-0.7-0.39-1.24-0.93-1.11c-0.79,0.19-3.68,0.54-3.9,1.49
			c-0.1,0.43,0.09,0.88,0.3,1.27c0.06,0.12,0.13,0.24,0.24,0.3c0.13,0.07,0.29,0.04,0.43,0.01C26.39,15.4,28.84,15.38,28.92,13.72z"
			/>
		<path d="M37.69,10.35c1.7,0.07,3.4-0.18,5.06-0.64c0.3-0.08,0.55-0.35,0.92-0.6c-0.24-0.44-0.38-0.92-0.69-1.21
			c-1.43-1.29-1.54-3.04-1.79-4.75c-0.1-0.72,0.65-1.25,1.39-1.05c2.18,0.59,3.47,2.11,3.76,4.43c0.29,2.28,0.28,2.24,2.37,1.86
			c2.04-0.38,4.02-1.04,6.13-1.11c1.31-0.04,2.19,0.57,2.95,1.49c0.43,0.52,0.29,1.45-0.33,1.77c-0.5,0.26-1.06,0.52-1.61,0.57
			c-1.37,0.14-2.72,0.53-4.14,0.4c-0.66-0.06-1.37,0.15-2.01,0.37c-0.39,0.14-0.79,0.51-0.54,1.08c0.14,0.32,0.24,0.67,0.44,0.94
			c0.58,0.74,0.2,1.91,1.05,2.49c0.86,0.58,1.8,0.06,2.7,0.02c1.19-0.05,2.33,0.02,3.34,0.67c0.59,0.38,1.09,0.94,0.89,1.73
			c-0.15,0.61-0.7,0.92-1.29,1c-1.26,0.19-2.53,0.29-3.79,0.47c-1.71,0.25-1.92,0.48-2.09,2.17c-0.05,0.57-0.07,1.16-0.03,1.73
			c0.05,0.75,0.68,1.25,1.47,1.06c2.97-0.7,5.96-0.67,8.98-0.43c0.81,0.06,1.61,0.09,2.36,0.46c0.95,0.47,1.8,1.47,1.69,2.02
			c-0.16,0.83-1.55,2.13-2.44,2.23c-0.34,0.04-0.71,0.06-1.04-0.01c-2.78-0.61-5.52-0.1-8.27,0.28c-2.24,0.32-2.98,0.92-2.82,3.09
			c0.27,3.78-0.23,7.79-0.23,11.62c0,2.34-0.21,5.08-2.17,6.36c-0.18,0.12-0.38,0.22-0.6,0.22c-0.28,0-0.52-0.16-0.75-0.32
			c-0.97-0.72-1.78-1.65-2.36-2.71c-0.11-0.21-0.22-0.44-0.19-0.67c0.05-0.32,0.34-0.52,0.58-0.74c1.26-1.14,1.33-3.06,1.31-4.76
			c-0.03-2.97-0.02-5.95-0.04-8.92c-0.01-1.86-0.42-2.21-2.3-1.8c-0.56,0.12-1.12,0.31-1.65,0.52c-0.9,0.35-1.8,0.31-2.73,0.12
			c-0.95-0.2-1.16-1.03-1.62-1.68c-0.46-0.66-1.02-1.25-1.49-1.9c-0.1-0.14-0.07-0.46,0.03-0.62c0.1-0.16,0.35-0.28,0.55-0.32
			c0.22-0.04,0.46,0.03,0.69,0.07c2.6,0.5,5.05-0.31,7.52-0.87c1.23-0.28,1.44-0.67,1.49-1.97c0.01-0.35-0.01-0.69-0.02-1.04
			c-0.02-1.9-0.09-2.08-1.93-1.71c-2.3,0.46-3.72-0.5-4.89-2.29c0.73-0.9,1.75-0.7,2.59-0.94c1.11-0.32,2.25-0.52,3.36-0.81
			c0.92-0.24,1.22-0.91,1.22-1.83c-0.02-2.93-0.39-3.24-3.21-2.52c-0.22,0.06-0.45,0.12-0.66,0.2c-1.63,0.65-2.92,0.14-4.01-1.12
			C38.33,11.89,37.46,11.52,37.69,10.35z"/>
		<path d="M51.21,0.44c1.05,0.12,2.03,0.47,2.79,1.17c0.5,0.46,0.88,1.21,0.61,1.86c-0.43,1.03-1.03,2.01-1.68,2.93
			c-0.37,0.52-1.66,0.53-2.25,0.17c-0.94-0.57-1.71-2.21-1.42-3.21c0.22-0.76,0.55-1.5,0.85-2.24C50.31,0.64,50.75,0.53,51.21,0.44z
			"/>
	</g>
	<g>
		<path d="M93.7,75.34c-0.9,0.06-1.81,0.12-2.71,0.18c-0.03,0-0.06,0-0.09,0.02c-0.06,0.03-0.06,0.11-0.05,0.17
			c0.02,0.43,0.09,0.87,0.13,1.34c0.01,0.02,0.04,0.02,0.07,0.02c0.58,0.01,1.15,0.12,1.72,0.04c0.67-0.09,1.33-0.26,1.96-0.49
			c0.05-0.02,0.09-0.03,0.14-0.03c0.15,0,0.23,0.17,0.29,0.31c0.09,0.19,0.2,0.36,0.3,0.55c0.27,0.52,0.07,1.43,0.66,1.69
			c0.59,0.27,1.59-0.31,2.15-0.47c0.12-0.03,0.25-0.07,0.37-0.05c0.25,0.03,0.44,0.24,0.59,0.43c0.35,0.43,0.7,0.87,0.94,1.37
			c0.07,0.15,0.13,0.34,0.01,0.47c-0.08,0.08-0.2,0.09-0.32,0.1c-0.91,0.07-1.73,0.03-2.63,0c-0.78-0.03-1.32-0.18-2.11,0.07
			c-0.07,0.02-0.14,0.05-0.18,0.1c-0.05,0.06-0.06,0.13-0.07,0.2c-0.04,0.26-0.45,1.2-0.28,1.35c0.14,0.12,0.34,0.12,0.53,0.11
			c0.37-0.02,0.74-0.09,1.1-0.19c0.12-0.04,0.25-0.08,0.38-0.05c0.15,0.03,0.26,0.15,0.36,0.26c0.37,0.47,0.6,1.05,0.63,1.64
			c0,0.08,0.01,0.16-0.03,0.23c-0.08,0.14-0.27,0.16-0.44,0.17c-0.54,0.01-6.38,0.02-6.36,0.22c0.09,0.85,1.36,7.05-1.24,5.64
			c-0.83-0.45-1.66-0.9-2.5-1.35c0.22-0.85,1.05-1.01,1.38-1.68c0.31-0.62,0.07-1.91-0.01-2.58c0.02,0.17-1.07,0.15-1.15,0.15
			c-1.53,0-3.2-0.07-4.66,0.38c-0.23,0.07-0.53,0.13-0.69-0.05c-0.05-0.06-0.08-0.14-0.1-0.21c-0.17-0.5-0.33-0.99-0.5-1.49
			c-0.05-0.15-0.08-0.35,0.05-0.44c0.06-0.04,0.14-0.04,0.21-0.04c0.55,0,6.37,0.27,6.37-0.27c0-0.29,0.01-0.58,0.01-0.86
			c0-0.08-0.01-0.18-0.08-0.22c-0.05-0.03-0.12-0.01-0.18,0c-0.81,0.21-1.71,0.04-2.55,0.12c-0.98,0.09-1.96,0.17-2.94,0.26
			c-0.08,0.01-0.18,0.01-0.24-0.04c-0.06-0.05-0.08-0.12-0.09-0.19c-0.1-0.45-0.2-0.9-0.3-1.35c-0.01-0.06-0.02-0.11-0.02-0.17
			c0.04-0.26,0.41-0.28,0.67-0.24c1.73,0.24,3.48,0.18,5.23,0.11c0.55-0.02,0.78-0.69,0.36-1.07c-0.31-0.28-1.92-0.13-2.33-0.13
			c-1.11,0.01-2.21,0.01-3.32,0.02c-0.24,0-0.52-0.02-0.65-0.21c-0.08-0.12-0.07-0.27-0.09-0.41c-0.03-0.28-0.15-0.55-0.23-0.82
			c-0.08-0.27-0.11-0.58,0.03-0.83c0.52,0.11,7.04,0.88,7.03,0.15c-0.01-0.33-0.01-0.66-0.02-1c0-0.17,0.11-0.6-0.2-0.51
			c-0.67,0.2-1.38,0.24-2.07,0.31c-0.35,0.03-0.7,0.07-1.04,0.14c-0.39,0.08-0.69,0.16-0.97-0.17c-0.24-0.28-0.45-0.58-0.65-0.9
			c-0.38-0.62-0.66-1.28-0.84-1.98c-0.05-0.2-0.1-0.41-0.09-0.63c0.01-0.28,0.11-0.55,0.18-0.83c0.09-0.36,0.14-0.74,0.13-1.12
			c0-0.11-0.01-0.24,0.07-0.31c0.06-0.06,0.14-0.07,0.23-0.08c0.67-0.09,1.36,0.05,2.03,0.09c0.48,0.03,0.96,0,1.44-0.03
			c0.5-0.03,1-0.05,1.5-0.08c0.06,0,0.12-0.01,0.16-0.04c0.05-0.04,0.06-0.12,0.06-0.18c0-0.46-0.04-0.92-0.1-1.38
			c-0.02-0.16-0.05-0.33-0.05-0.49c0-0.08-0.01-0.16-0.07-0.21c-0.04-0.04-0.11-0.05-0.17-0.05c-0.88-0.09-1.78-0.05-2.66-0.03
			c-0.47,0.01-0.94,0.01-1.41,0c-0.32,0-1,0.11-1.27-0.08c-0.1-0.07-0.13-0.2-0.16-0.32c-0.07-0.25-0.16-0.48-0.28-0.71
			c-0.1-0.18-0.22-0.37-0.22-0.58c0.01-0.22,0.16-0.41,0.37-0.51c0.26-0.12,0.46-0.03,0.71,0.01c0.29,0.05,0.62,0.02,0.92,0.03
			c0.6,0.01,1.19-0.01,1.79-0.03c0.26-0.01,2.66,0.04,2.7-0.18c0.07-0.48,0.03-0.97,0.04-1.46c0.01-0.5,0.09-0.98,0.19-1.47
			c0.02-0.1,0.05-0.22,0.14-0.27c0.13-0.08,0.29,0,0.42,0.08c0.27,0.17,0.55,0.35,0.82,0.52c0.09,0.06,0.18,0.11,0.24,0.2
			c0.07,0.1,0.09,0.22,0.11,0.34c0.05,0.32,0.1,0.64,0.14,0.96c0.03,0.28,0.05,0.56,0.08,0.84c0,0.02,0,0.04,0.02,0.06
			c0.02,0.02,0.05,0.02,0.08,0.02c1.33,0,2.67-0.06,3.99-0.25c0.05-0.01,0.1-0.01,0.15,0c0.04,0.02,0.08,0.05,0.11,0.09
			c0.49,0.57,1,1.19,1.11,1.92c0.02,0.11,0.02,0.24-0.04,0.33c-0.1,0.15-0.31,0.17-0.49,0.17c-0.83,0.02-1.67,0.01-2.5-0.02
			c-0.77-0.03-1.56,0.06-2.34,0.1c-0.07,0-0.15,0.01-0.18,0.07c-0.03,0.04-0.03,0.09-0.03,0.14c0.02,0.39,0.04,0.78,0.06,1.16
			c0.02,0.33-0.01,0.7,0.13,1.01c0.01,0.03,0.03,0.06,0.06,0.08c0.03,0.02,0.07,0.02,0.11,0.02c1.12-0.02,2.25-0.05,3.32-0.35
			c0.29-0.08,0.61-0.18,0.89-0.07c0.14,0.06,0.26,0.17,0.37,0.27c0.18,0.18,0.37,0.36,0.55,0.54c0.08,0.08,0.16,0.16,0.2,0.26
			c0.03,0.09,0.03,0.19,0.02,0.29c-0.09,1.33-0.31,2.64-0.65,3.93c-0.07,0.27-0.23,0.3-0.5,0.32C94.49,75.28,94.09,75.31,93.7,75.34
			z M88.17,73.45c0.01-0.04,0.01-0.09,0.01-0.13c-0.01-0.24,0.05-0.7-0.13-0.88c-0.16-0.16-0.49-0.11-0.69-0.11
			c-0.4,0-0.81,0.02-1.21,0.06c-0.17,0.02-0.45,0.03-0.47,0.24c-0.01,0.1,0.08,0.27,0.1,0.37c0.03,0.17,0.06,0.34,0.09,0.51
			c0.01,0.07,0.03,0.15,0.1,0.18c0.05,0.02,0.1,0.01,0.16,0c0.54-0.1,1.1-0.13,1.65-0.1C87.92,73.61,88.1,73.6,88.17,73.45z
			 M92.28,72.22c-0.24,0.01-0.48,0.01-0.73,0.02c-0.22,0.01-0.73-0.08-0.92,0.02c-0.29,0.15-0.01,0.91,0.07,1.16
			c0.02,0.06,0.05,0.13,0.11,0.16c0.04,0.02,0.08,0.01,0.12,0.01c0.51-0.06,1.02-0.11,1.53-0.17c0.06-0.01,0.12-0.01,0.16-0.05
			c0.06-0.04,0.08-0.11,0.1-0.18c0.07-0.24,0.09-0.49,0.06-0.74c-0.01-0.07-0.02-0.14-0.07-0.19c-0.06-0.06-0.16-0.06-0.24-0.06
			C92.42,72.22,92.35,72.22,92.28,72.22z M91.75,82.54c0.17-0.01,0.34-0.03,0.51-0.04c0.04-0.36,0.06-0.7-0.04-1.05
			c-0.13-0.01-1.33,0.03-1.34,0.14c0,0.19,0.06,0.33,0.15,0.49c0.07,0.12,0.13,0.39,0.23,0.46c0.03,0.03,0.08,0.02,0.12,0.02
			C91.5,82.56,91.63,82.55,91.75,82.54z M91.78,79.13c-0.29-0.01-0.57,0.03-0.86,0.07c-0.03,0-0.05,0.01-0.07,0.03
			c-0.03,0.03-0.01,0.09,0.01,0.13c0.07,0.14,0.13,0.28,0.2,0.41c0.01,0.02,0.02,0.04,0.04,0.05c0.02,0.01,0.05,0.01,0.07,0.01
			c0.21,0,0.42,0.04,0.62,0.03c0.14-0.01,0.43,0.01,0.54-0.07c0.07-0.05,0.09-0.13,0.1-0.22c0.02-0.11,0.02-0.22,0.01-0.34
			c-0.01-0.05-0.02-0.11-0.06-0.15c-0.06-0.05-0.15-0.04-0.22-0.03C92.03,79.09,91.93,79.13,91.78,79.13z"/>
		<g>
			<path d="M158.42,66.96c1.04,0.47,1.63,1.21,1.61,2.43c-0.01,0.62-0.24,1.1-0.64,1.49c-0.66,0.64-1.37,1.23-2.02,1.87
				c-0.14,0.14,0.88,0.22,0.95,0.22c0.44-0.03,0.88,0.03,1.33,0.02c1-0.02,2-0.2,2.94-0.54c0.22-0.08,0.48-0.16,0.66-0.02
				c0.07,0.05,0.12,0.13,0.16,0.21c0.24,0.41,0.47,0.81,0.71,1.22c0.13,0.22,0.26,0.44,0.32,0.69c0.05,0.22,0.05,0.45,0.04,0.68
				c-0.02,0.48-0.03,0.96-0.05,1.45c-0.01,0.37-0.03,0.74-0.18,1.08c-0.25,0.55-0.81,0.67-1.36,0.69c-0.42,0.01-0.83,0.11-1.25,0.09
				c-0.52-0.02-1.04-0.04-1.57-0.04c-0.47,0-2.2-0.11-2.33,0.59c-0.52,2.94-0.35,6.36-2.91,8.48c-0.27,0.23-0.65,0.43-0.97,0.28
				c-0.14-0.07-0.25-0.19-0.35-0.32c-0.55-0.69-1.02-1.45-1.42-2.24c-0.06-0.12-0.12-0.26-0.1-0.39c0.02-0.13,0.1-0.24,0.18-0.34
				c1.21-1.54,2.05-3.36,2.45-5.27c0.37-1.76,0.75-3.64,0.96-5.42c0.06-0.48,0.15-1.03-0.22-1.43c-0.5-0.53-0.4-0.98,0.06-1.45
				c0.84-0.85,1.39-1.9,2.02-2.89C157.7,67.68,157.91,67.22,158.42,66.96z M159.09,74.29c-0.37,0.07-0.79,0.2-0.92,0.53
				c-0.07,0.17-0.04,0.36-0.01,0.54c0.06,0.38,0.11,0.76,0.17,1.14c1.13-0.04,2.26-0.14,3.37-0.32c0.07-0.01,0.14-0.02,0.18-0.07
				c0.05-0.05,0.06-0.13,0.07-0.2c0.04-0.38,0.03-0.76-0.01-1.14c-0.02-0.19-0.07-0.39-0.22-0.51c-0.1-0.07-0.23-0.09-0.35-0.1
				c-0.64-0.06-1.28-0.02-1.91,0.07C159.36,74.25,159.23,74.27,159.09,74.29z"/>
			<path d="M171.4,73.24c0.01,0.04,0.03,0.08,0.06,0.1c0.05,0.04,0.12,0.03,0.19,0.03c1.89-0.19,3.77-0.57,5.59-1.13
				c0.34-0.11,0.7-0.22,1.06-0.17c0.47,0.07,0.89,0.33,1.24,0.64c0.28,0.24,0.78,0.51,0.72,0.94c-0.03,0.19-0.17,0.34-0.34,0.43
				c-0.74,0.39-1.7,0.24-2.51,0.24c-0.99,0.09-1.99,0.16-2.99,0.22c-0.5,0.03-1,0.06-1.5,0.08c-0.21,0.01-0.89-0.12-1.06,0.04
				c-0.05,0.05-0.06,0.13-0.07,0.2c-0.05,0.81,0.07,1.62,0.1,2.43c0.03,1.1-0.09,2.21-0.3,3.29c-0.25,1.25-0.53,2.51-1,3.7
				c-0.22,0.57-1,2.83-1.91,2.52c-0.29-0.09-0.47-0.36-0.64-0.61c-0.36-0.56-0.71-1.13-1.03-1.72c-0.08-0.15-0.16-0.3-0.18-0.47
				c-0.05-0.47,0.41-0.81,0.74-1.13c0.93-0.91,1.17-2.3,1.3-3.6c0.14-1.38,0.2-2.76,0.12-4.15c-0.04-0.68-0.11-1.35-0.23-2.02
				c-0.1-0.58-0.39-1.1-0.07-1.65c0.47-0.81,0.98-1.59,1.45-2.4c0.34-0.59,0.64-1.21,0.97-1.81c0.28-0.53,0.69-0.66,1.23-0.38
				c0.6,0.31,1.16,0.82,1.17,1.53c0.01,0.77-0.47,1.63-0.96,2.19c-0.43,0.5-0.8,1-1.23,1.5c-0.05,0.06-0.11,0.13-0.12,0.21
				c-0.01,0.07,0,0.14,0.02,0.21c0.06,0.23,0.12,0.45,0.17,0.68C171.39,73.2,171.4,73.22,171.4,73.24z"/>
			<path d="M177.1,77c0,0.45,0,0.9,0,1.35c0,1.95,0,3.9,0,5.85c0.01,1.86-0.03,3.78-0.86,5.51c-0.1,0.22-0.29,0.47-0.57,0.46
				c-0.11,0-0.21-0.05-0.31-0.09c-0.97-0.44-1.84-1.03-2.52-1.74c-0.06-0.06-0.11-0.13-0.09-0.2c0.02-0.06,0.08-0.1,0.13-0.14
				c0.36-0.25,0.57-0.61,0.71-0.98c0.23-0.57,0.34-1.16,0.44-1.75c0.67-3.9,1.11-7.85,0.53-11.76c-0.01-0.05,1.27,0.04,1.39,0.06
				c0.43,0.09,0.81,0.29,1.04,0.61c0.22,0.3,0.11,0.78,0.11,1.14C177.1,75.88,177.1,76.44,177.1,77z"/>
		</g>
		<g>
			<path d="M52.23,72.66c-0.11-0.15-0.21-0.3-0.32-0.44c0.95-0.11,1.9-0.21,2.85-0.32c0.29-0.03,0.6-0.07,0.84-0.24
				c0.46-0.32,0.5-1.05-0.02-1.31c-0.43-0.22-1.03-0.02-1.48,0.05c-0.08,0.01-0.16,0.02-0.23-0.01c-0.06-0.03-0.1-0.09-0.13-0.15
				c-0.2-0.33-0.39-0.66-0.59-0.99c-0.03-0.04-0.05-0.09-0.04-0.14c0.01-0.06,0.08-0.1,0.15-0.12c0.4-0.15,0.76-0.21,1.18-0.18
				c0.34,0.02,0.69,0.09,1.02-0.06c0.57-0.26,0.4-0.76,0.35-1.28c-0.02-0.25-0.1-0.55-0.34-0.6c-0.09-0.02-0.18,0-0.27,0.02
				c-0.38,0.09-0.77,0.12-1.16,0.1c-0.05,0-0.1-0.01-0.14-0.04c-0.03-0.02-0.04-0.05-0.06-0.08c-0.14-0.27-0.27-0.55-0.41-0.82
				c-0.03-0.05-0.05-0.11-0.05-0.17c0.03-0.33,1.12-0.35,1.39-0.41c0.53-0.13,1.09-0.37,1.09-1c0-0.55,0.02-1.09,0.06-1.64
				c0-0.05,0.01-0.1,0.04-0.13c0.04-0.05,0.12-0.06,0.19-0.05c0.4,0.04,0.72,0.41,1.12,0.42c0.08,0,0.16-0.01,0.23,0.03
				c0.06,0.04,0.09,0.12,0.1,0.2c0.1,0.41,0.2,0.83,0.3,1.24c0.01,0.05,0.03,0.1,0.07,0.13c0.04,0.03,0.1,0.03,0.15,0.02
				c1.3-0.14,3.72-1,4.13,0.86c0.09,0.43,0.09,0.89,0.26,1.29c0.75-0.06,1.51-0.11,2.26-0.17c0.11-0.01,0.22-0.02,0.32,0.03
				c0.12,0.05,0.19,0.17,0.25,0.28c0.23,0.39,0.46,0.79,0.68,1.18c0.09,0.15,0.18,0.32,0.15,0.49c-0.05,0.31-0.43,0.42-0.73,0.47
				c-0.91,0.13-1.81,0.14-2.71,0.2c-0.64,0.04-1.01,0.37-1.18,1c-0.06,0.22-0.09,0.46-0.18,0.67c-0.31,0.73,0.32,0.69,0.85,0.58
				c0.09-0.02,0.2-0.04,0.28,0.01c0.05,0.03,0.08,0.07,0.11,0.12c0.2,0.31,0.41,0.62,0.61,0.93c0.11,0.16,0.22,0.36,0.15,0.54
				c-0.08,0.22-0.37,0.26-0.6,0.27c-0.79,0.03-1.56-0.02-2.34,0.03c-2,0.13-2,0.13-1.97,2.08c0.02,1.27,1.85,0.54,2.64,0.46
				c0.16-0.02,0.32-0.03,0.48,0.01c0.28,0.08,0.48,0.34,0.65,0.58c0.16,0.23,0.33,0.46,0.49,0.69c0.05,0.07,0.1,0.14,0.11,0.23
				c0.03,0.23-0.22,0.38-0.43,0.46c-0.7,0.25-1.43,0.29-2.16,0.37c-0.6,0.07-1.09,0.36-1.67,0.52c-0.05,0.01-0.1,0.03-0.14,0.06
				c-0.07,0.06-0.08,0.17-0.08,0.27c0,0.4,0,0.81,0,1.21c0,0.03,0,0.06,0.02,0.09c0.03,0.05,0.11,0.05,0.17,0.04
				c1.69-0.25,3.42-0.37,5.13-0.59c1.15-0.15,2.27-0.33,3.42-0.53c0.52-0.09,1.11-0.16,1.53,0.17c0.21,0.16,0.34,0.4,0.46,0.64
				c0.2,0.38,0.39,0.75,0.59,1.13c0.09,0.17,0.18,0.35,0.15,0.54c-0.06,0.36-0.51,0.49-0.87,0.54c-1.77,0.25-3.54,0.51-5.32,0.74
				c-1.6,0.21-3.38,0.38-4.93,0.86c-0.01,0.68-0.11,1.31-0.07,1.99c0.04,0.77-0.08,1.61-0.19,2.37c-0.12,0.77-0.23,1.64-0.57,2.34
				c-0.1,0.2-0.23,0.41-0.45,0.45c-0.16,0.03-0.32-0.04-0.47-0.12c-0.47-0.25-1.1-0.67-1.35-1.15c-0.27-0.51-0.04-1.22,0.04-1.77
				c0.23-1.49,0.16-3.03-0.22-4.5c-1.63,0.16-3.25,0.29-4.86,0.59c-0.18,0.03-0.37,0.07-0.55,0.04c-0.41-0.06-0.71-0.41-0.9-0.77
				c-0.19-0.36-0.31-0.77-0.55-1.11c-0.04-0.06-0.09-0.13-0.1-0.2c-0.01-0.18,0.23-0.26,0.4-0.25c0.36,0.02,0.59-0.15,0.94-0.19
				c1.24-0.13,2.49-0.26,3.73-0.38c0.61-0.06,1.24-0.13,1.79-0.4c0.09-0.04,0.18-0.1,0.23-0.18c0.08-0.12,0.08-0.28,0.06-0.43
				c-0.02-0.22-0.03-0.45-0.05-0.67c-0.06-0.83-0.93-0.59-1.51-0.47c-0.24,0.05-0.52,0.12-0.72-0.03c-0.16-0.12-0.21-0.34-0.25-0.53
				c-0.06-0.35-0.13-0.73-0.35-1.01c-0.04-0.06-0.1-0.12-0.11-0.19c-0.01-0.1,0.07-0.19,0.16-0.23c0.09-0.04,0.19-0.04,0.29-0.04
				c0.86-0.02,1.6-0.31,2.43-0.48c0.17-0.04,0.37-0.09,0.45-0.25c0.11-0.23,0.11-0.82,0.12-1.09c0.03-0.42-0.01-0.83-0.02-1.25
				c0-0.04,0-0.08-0.03-0.11c-0.02-0.03-0.06-0.04-0.09-0.05c-0.89-0.26-1.85,0.22-2.77,0.08C52.87,73.55,52.55,73.1,52.23,72.66z
				 M59.68,67.18c0.01-0.4-0.29-0.64-0.8-0.64c-0.54-0.01-0.77,0.16-0.81,0.62c-0.04,0.42,0.17,0.74,0.47,0.76
				C59.18,67.94,59.67,67.62,59.68,67.18z M59.11,70.25c-0.07-0.1-0.12-0.24-0.19-0.25c-0.3-0.05-0.54,0.06-0.64,0.37
				c-0.07,0.21-0.09,0.47,0.13,0.58c0.23,0.12,0.4-0.08,0.52-0.27C59.01,70.55,59.05,70.39,59.11,70.25z"/>
			<g>
				<path d="M45.64,72.23c0.65,0.26,1.24,0.52,1.4,1.23c0.16,0.72-0.06,1.37-0.54,1.94c-0.3,0.35-0.61,0.7-0.86,1.08
					c-0.25,0.39-0.51,0.8-0.61,1.24c-0.1,0.43,0.46,0.62,0.61,0.99c1.44,3.34,0.86,8.44-0.89,11.57c-0.07,0.13-0.17,0.26-0.31,0.26
					c-0.12,0-0.21-0.1-0.29-0.2c-0.42-0.52-0.84-1.04-1.26-1.56c-0.25-0.31-0.51-0.64-0.6-1.03c-0.06-0.28-0.03-0.58,0-0.87
					c0.25-2.23,0.45-4.46,0.88-6.65c0.03-0.17-0.05-0.35-0.24-0.4c-0.1-0.03-0.22,0-0.32,0.05c-0.1,0.04-0.2,0.12-0.28,0.2
					c-0.88,0.72-1.96,0.96-3.02,1.25c-0.86,0.24-1.58,0.03-2.19-0.63c-0.3-0.33-0.33-0.65,0.06-0.85c0.87-0.45,1.61-1.1,2.53-1.49
					c2.15-0.91,3.75-2.48,4.87-4.52C44.88,73.27,45.2,72.74,45.64,72.23z"/>
				<path d="M42.15,71.92c-0.73,0.04-1.18-0.42-1.57-0.93c-0.19-0.24-0.15-0.59,0.01-0.83c0.71-1.05,1.44-2.09,2.18-3.12
					c0.08-0.11,0.31-0.17,0.47-0.16c0.92,0.09,2.14,1.16,2.37,2.05c0.06,0.24,0.05,0.48-0.13,0.65c-0.76,0.71-1.42,1.52-2.34,2.04
					C42.83,71.8,42.51,71.92,42.15,71.92z"/>
			</g>
		</g>
		<g>
			<path d="M19.42,75.48c0.04,0.15,0.09,0.27,0.14,0.31c0.08,0.06,0.19,0.06,0.29,0.06c1.02-0.03,2.03-0.06,3.05-0.09
				c0.35-0.01,0.71-0.02,1.03,0.11c0.34,0.14,0.6,0.42,0.84,0.7c0.45,0.53,0.85,1.1,1.2,1.71c0.08,0.14,0.16,0.29,0.13,0.45
				c-0.05,0.32-0.48,0.4-0.81,0.4c-2.26,0.01-4.46-0.21-6.73-0.15c-1.33,0.03-2.65,0.1-3.98,0.19c-0.69,0.05-1.37,0.12-2.06,0.17
				c-0.44,0.03-1.18,0.26-1.59,0.14c-0.33-0.1-0.53-0.43-0.69-0.74c-0.19-0.36-0.38-0.71-0.56-1.07c-0.13-0.24-0.25-0.52-0.15-0.76
				c0.07-0.16,1.66-0.18,1.88-0.2c1.28-0.11,2.52-0.07,3.78-0.33c0.31-0.06,1.01-0.18,1.14-0.52c0.02-0.06,0.03-0.12,0.03-0.19
				c0.02-0.47,0.08-0.91,0.13-1.37c0.03-0.29,0.18-1.04-0.14-1.23c-0.21-0.12-1.4,0.25-1.72,0.24c-0.15,0-0.3-0.01-0.42-0.11
				c-0.07-0.06-0.11-0.14-0.15-0.21c0.02-0.42-0.62-0.93-0.72-1.36c-0.01-0.05-0.02-0.11,0.02-0.15c0.02-0.03,0.06-0.04,0.09-0.04
				c0.29-0.07,0.58-0.03,0.88-0.02c0.7,0.02,1.38-0.15,2.05-0.33c0.15-0.04,0.32-0.09,0.4-0.22c0.06-0.09,0.06-0.2,0.07-0.3
				c0.01-0.54-0.35-2.08,0.24-2.39c0.11-0.06,0.25-0.02,0.37,0.02c0.34,0.11,0.68,0.21,1.01,0.32c0.05,0.01,0.1,0.03,0.13,0.06
				c0.05,0.04,0.06,0.11,0.08,0.17c0.14,0.57,0.3,1.13,0.5,1.69c0.03,0.07,0.06,0.16,0.13,0.19c0.05,0.02,0.11,0.02,0.17,0.01
				c0.67-0.08,1.34-0.12,2.02-0.18c0.12-0.01,0.24-0.02,0.34,0.03c0.15,0.06,0.23,0.22,0.3,0.36c0.26,0.51,0.52,1.05,0.5,1.61
				c0,0.08-0.01,0.16-0.06,0.22c-0.07,0.09-0.2,0.11-0.32,0.12c-0.66,0.05-2.3-0.19-2.82,0.19c-0.38,0.28-0.3,1.03-0.22,1.43
				C19.27,74.59,19.33,75.13,19.42,75.48z"/>
			<path d="M25.77,87.54c-0.85,1.16-1.7,1.48-2.1,0.92c-0.22-0.31-0.37-0.71-0.48-1.12c-0.4-1.47-0.94-2.79-1.83-3.79
				c-0.22-0.24-0.13-0.59,0.23-0.98c0.72-0.78,1.43-1.58,2.29-1.88c0.25-0.09,0.48-0.13,0.56,0.08c0.44,1.22,1.26,2.04,1.7,3.28
				c0.24,0.67,0.23,1.42,0.12,2.26C26.19,86.8,25.94,87.31,25.77,87.54z"/>
			<path d="M13.72,87.88c-0.23,0.01-0.47,0.02-0.7,0.03c-0.2,0.01-0.41,0.01-0.59-0.08c-0.21-0.11-0.33-0.32-0.45-0.53
				c-0.31-0.57-0.63-1.14-0.94-1.71c-0.65-1.19,0.4-2.51,1.17-3.35c1.08-1.18,2.09-2.27,2.82-3.73c0.13-0.26,0.27-0.55,0.52-0.69
				c0.14-0.08,0.31-0.1,0.47-0.12c0.51-0.05,1.71-0.24,2.11,0.2c0.41,0.45-0.02,1.64-0.23,2.11c-0.16,0.35-0.37,0.66-0.58,0.98
				c-0.7,1.03-1.47,1.94-2.23,2.93c-0.11,0.14-0.13,0.42-0.03,0.56c0.09,0.12,0.42,0.22,0.61,0.2c2.02-0.27,4.03-0.57,6.06-0.8
				c0.78-0.09,1.42-0.25,1.55,0.65c0.1,0.74-0.21,1.69-0.49,2.36c-0.09,0.22-0.2,0.44-0.41,0.56c-0.15,0.08-0.33,0.09-0.5,0.1
				C19.16,87.66,16.44,87.77,13.72,87.88z"/>
			<path d="M4.21,89.15c-1.29-0.09-2.19-0.68-2.89-1.5c-0.19-0.23-0.07-0.49,0.18-0.69c0.68-0.54,1.52-0.91,2.34-1.3
				c0.53-0.25,0.95-0.75,1.65-0.67c0.83,0.09,1.56,0.41,2.22,0.81c0.2,0.12,0.36,0.29,0.51,0.45c0.5,0.58,0.44,1.12-0.24,1.61
				C6.92,88.64,5.73,89.19,4.21,89.15z"/>
			<path d="M3.75,81.58c-0.08-0.01-0.34-0.03-0.57-0.12c-0.91-0.35-1.16-0.59-0.71-1.53c0.34-0.71,0.9-1.23,1.3-1.88
				c0.29-0.48,0.5-1.09,1.27-0.88c1.28,0.36,2.08,1.1,2.1,1.95c0,0.12-0.01,0.26-0.05,0.37C6.64,80.67,5.17,81.64,3.75,81.58z"/>
			<path d="M4.74,73.73c-0.1-0.01-0.42-0.04-0.73-0.11c-0.68-0.17-0.92-0.57-0.79-1.28c0.08-0.44,0.23-0.85,0.45-1.25
				c0.67-1.17,2.17-1.24,2.94-0.13c0.37,0.53,0.29,1.03,0.03,1.61C6.23,73.54,6.21,73.7,4.74,73.73z"/>
		</g>
		<g>
			<path d="M130.43,82c-0.43,0.1-0.88,0.13-1.32,0.1c-0.16-0.01-0.35-0.05-0.43-0.2c-0.05-0.09-0.04-0.2-0.05-0.3
				c-0.05-0.57-0.66-0.96-0.73-1.52c-0.01-0.05-0.01-0.1,0.02-0.15c0.04-0.06,0.13-0.07,0.21-0.07c0.53-0.02,1.07-0.03,1.6-0.05
				c1.81-0.05,3.08-0.83,2.92-2.87c-0.01-0.07-0.01-0.14,0.03-0.2c0.08-0.12,0.27-0.05,0.4,0.03c0.44,0.28,0.88,0.56,1.32,0.84
				c0.13,0.08,0.27,0.17,0.34,0.31c0.07,0.14,0.07,0.3,0.06,0.46c-0.02,0.39-0.09,0.77-0.18,1.14c1.08,0.11,2.16,0.16,3.24,0.14
				c0.16,0,0.33,0,0.46,0.08c0.1,0.06,0.17,0.16,0.23,0.26c1.85,2.89,0.37,6.14-2.17,8.02c-0.26,0.19-0.53,0.37-0.84,0.46
				c-0.31,0.09-0.66,0.08-0.93-0.09c-0.17-0.11-0.3-0.27-0.43-0.43c-0.25-0.31-0.49-0.62-0.74-0.93c-0.05-0.06-0.1-0.13-0.1-0.21
				c0-0.11,0.11-0.19,0.2-0.26c0.63-0.42,1.53-0.74,1.98-1.36c0.47-0.66,0.58-1.55,0.55-2.34c-0.02-0.47-0.2-0.83-0.65-0.96
				c-0.51-0.16-1.08-0.33-1.48,0.2c-0.32,0.43-0.63,0.89-0.81,1.38c-0.44,1.26-1.27,2.3-2.26,3.18c-0.45,0.4-0.97,0.68-1.43,1.04
				c-0.51,0.4-0.83,0.96-1.54,1.01c-0.43,0.03-0.84-0.16-1.23-0.35c-0.59-0.29-1.18-0.6-1.76-0.92c-0.18-0.1-0.39-0.24-0.37-0.45
				c2.3-1.27,4.4-2.41,5.86-4.65c0.25-0.38,0.27-0.75-0.17-1.09c-0.36-0.28-0.75-0.58-0.99-1.18c0.23-0.05,0.29-0.08,0.35-0.07
				c0.88,0.15,1.6,0.04,2.12-0.38"/>
			<path d="M132.68,67.26c0.02,0,0.04,0.01,0.06,0.02c0.44,0.19,0.84,0.36,1.31,0.45c0.44,0.08,0.9,0.13,1.34,0.07
				c0.14-0.02,0.3-0.05,0.43,0.02c0.11,0.06,0.18,0.19,0.24,0.31c0.17,0.33,0.34,0.67,0.52,1c0.05,0.09,0.1,0.19,0.1,0.29
				c0.01,0.14-0.05,0.27-0.11,0.4c-0.36,0.72-0.95,1.31-1.64,1.61c0.16-0.07,0.86,0.64,1.03,0.72c0.35,0.16,0.76,0.18,1.14,0.25
				c1.05,0.18,2.12,0.27,3.2,0.26c0.15,0,0.3,0,0.42,0.09c0.08,0.07,0.13,0.18,0.17,0.28c0.31,0.77,0.63,1.55,0.94,2.32
				c0.11,0.28,0.21,0.63,0.02,0.87c-0.12,0.15-0.32,0.18-0.49,0.19c-1.6,0.15-3.2-0.17-4.62-0.87c-0.42-0.21-3.22-2.63-3.53-2.37
				c-1.59,1.29-3.08,2.59-4.91,3.41c-0.33,0.15-0.68,0.29-1.02,0.23c-0.52-0.1-0.83-0.66-1.09-1.16c-0.33-0.65-0.66-1.3-0.99-1.96
				c1.16-0.08,2.03-0.41,3.11-0.88c0.27-0.12,2.69-1.13,2.53-1.49c-0.07-0.17-1.31-1.65-1.24-1.69c-0.38,0.19-0.77,0.31-1.16,0.48
				c-0.1,0.04-0.22,0.09-0.32,0.04c-0.05-0.02-0.09-0.06-0.13-0.1c-0.35-0.37-0.71-0.75-0.97-1.19c-0.1-0.18-0.19-0.41-0.08-0.58
				c0.08-0.13,0.23-0.19,0.37-0.24c0.36-0.13,0.78-0.21,1.11-0.39c0.28-0.15,0.56-0.33,0.82-0.51c0.57-0.39,1.1-0.85,1.52-1.4
				c0.2-0.26,0.44-0.49,0.67-0.71c0.29-0.27,0.62-0.61,1.03-0.66c0.08-0.01,0.17-0.01,0.24,0.03c0.05,0.03,0.09,0.08,0.12,0.12
				c0.15,0.21,0.29,0.44,0.4,0.68c0.06,0.12,0.11,0.25,0.12,0.38c0.01,0.12-0.01,0.23-0.02,0.35c-0.03,0.18-0.05,0.35-0.08,0.53
				c-0.01,0.1-0.03,0.19-0.07,0.28c-0.04,0.08-0.1,0.15-0.16,0.22c-0.14,0.16-0.29,0.29-0.34,0.49c-0.06,0.21-0.23,0.29-0.4,0.4
				c-0.65,0.43-1.42,0.7-1.86,1.58c0.4,0.24,0.75,0.46,1.11,0.67c0.15,0.09,0.31,0.19,0.48,0.23c0.16,0.04,0.37,0.06,0.51-0.02
				c0.52-0.29,0.92-0.9,1-1.49c0.01-0.05,0.01-0.09-0.01-0.14c-0.03-0.07-0.1-0.1-0.17-0.13c-0.44-0.21-0.84-0.51-1.17-0.87
				c0.15-0.13,0.29-0.26,0.44-0.39C132.61,67.28,132.63,67.27,132.68,67.26z"/>
			<path d="M119.17,80.43c0,2,0,4.05,0,4.05c-0.05,0.9-0.15,1.8-0.3,2.69c-0.14,0.79-0.47,1.74-1.27,1.86
				c-0.56,0.08-1.07-0.31-1.49-0.69c-0.41-0.37-0.84-0.78-0.93-1.32c-0.02-0.13-0.02-0.26,0.04-0.37c0.07-0.14,0.22-0.22,0.35-0.32
				c0.94-0.66,1.03-1.99,1.03-3.13c0.01-2.74,0.02-5.47,0.03-8.21c0.83-0.09,2.54,0.57,2.54,1.64
				C119.17,76.63,119.17,78.51,119.17,80.43z"/>
			<path d="M111.56,74.48c1.68-0.28,3.37-0.55,5.05-0.83c1.4-0.23,2.98-0.47,4.31-0.95c0.36-0.13,0.72-0.31,1.1-0.31
				c0.67,0.01,1.18,0.56,1.61,1.08c0.32,0.39,0.67,0.82,0.67,1.33c0,0.65-0.44,1.41-0.88,1.86c-0.38,0.38-0.83,0.75-1.36,0.76
				c-0.42,0.01-1.63-0.54-1.64-1.05c-0.02-0.51,0.98-0.86,0.03-1.12c-0.67-0.19-1.94,0.19-2.64,0.27c-1.12,0.12-2.28,0.26-3.31,0.74
				c-0.24,0.11-0.51,0.25-0.75,0.16c-0.17-0.06-0.28-0.21-0.41-0.33C112.87,75.61,111.74,75.16,111.56,74.48z"/>
			<path d="M115.28,79.55c-0.03,1.28-0.8,2.22-1.49,3.18c-0.24,0.33-0.56,0.62-0.89,0.88c-0.83,0.66-2.48,0.75-3.38,0.15
				c-0.43-0.29-1.01-0.6-0.93-1.19c0.06-0.41,0.6-0.54,0.99-0.68c1.6-0.55,2.75-1.65,3.73-2.97c0.25-0.34,0.5-0.67,0.77-0.99
				c0.21-0.25,0.54-0.19,0.74,0.11C115.11,78.47,115.28,79.05,115.28,79.55z"/>
			<path d="M117.83,68.22c-0.5,0.05-2.46,0.31-2.72-0.24c-0.26-0.55-0.53-1.16-0.39-1.76c1.08,0.05,2.33,0.19,3.36-0.23
				c0.26-0.11,0.54-0.24,0.81-0.17c0.18,0.04,0.33,0.16,0.47,0.28c0.22,0.19,0.45,0.37,0.67,0.56c0.11,0.09,0.23,0.19,0.28,0.33
				c0.05,0.12,0.04,0.26,0.03,0.39c-0.15,1.39-1.07,4.13-2.85,2.45c-0.26-0.24-0.2-0.52-0.17-0.82c0.08-0.85,0.08-0.88-0.64-1.12
				c-0.58-0.2-1.04-0.55-1.8-1.23c1.04-0.09,1.93-0.18,2.78-0.21"/>
			<path d="M116.3,70.29c0.01-0.22,0.03-0.45,0.07-0.67c0.85,0.05,1.69,0.52,2.5,0.51c0.48-0.01,0.89,0.27,1.26,0.57
				c0.72,0.57-0.86,1.42-1.37,1.37c-0.68-0.07-1.21-0.62-1.87-0.78c-0.16-0.04-0.35-0.07-0.46-0.19c-0.1-0.11-0.12-0.27-0.12-0.42
				C116.3,70.54,116.3,70.42,116.3,70.29z"/>
		</g>
	</g>
	<g>
		<path class="st0" d="M42.09,133.78c-0.6,0.44-1.26,0.66-1.97,0.66s-1.28-0.23-1.69-0.68c-0.35-0.23-0.62-0.62-0.81-1.16
			c-0.19-0.55-0.29-1.13-0.29-1.73c0-0.6,0.09-1.15,0.26-1.64c0.17-0.49,0.42-0.85,0.73-1.09c0.2-0.26,0.49-0.47,0.88-0.62
			c0.4-0.14,0.85-0.21,1.35-0.21c0.5,0,0.98,0.08,1.45,0.24c0.35,0.13,0.62,0.29,0.81,0.48c0.23,0.23,0.35,0.51,0.35,0.81
			c0,0.1-0.01,0.16-0.04,0.19s-0.07,0.04-0.13,0.04c-0.06,0-0.13-0.02-0.23-0.05c-0.09-0.04-0.18-0.1-0.27-0.18
			c-0.09-0.09-0.18-0.21-0.26-0.34c-0.07-0.11-0.17-0.22-0.3-0.32c-0.14-0.1-0.29-0.16-0.46-0.17c-0.34-0.04-0.6-0.06-0.79-0.08
			c-0.1-0.01-0.18-0.01-0.25-0.01c-0.07,0-0.14,0.01-0.21,0.04c-0.07,0.03-0.12,0.06-0.15,0.09c-0.04,0.03-0.21,0.21-0.51,0.54
			c-0.37,0.38-0.6,0.68-0.7,0.91s-0.18,0.61-0.22,1.15c-0.02,0.23-0.02,0.4-0.02,0.51c0,0.66,0.11,1.22,0.34,1.68
			c0.24,0.47,0.63,0.74,1.15,0.8c0.64-0.09,1.34-0.45,2.11-1.09c0.01-0.01,0.06-0.06,0.14-0.13c0.08-0.07,0.15-0.13,0.2-0.19
			c0.06-0.05,0.12-0.1,0.19-0.14c0.07-0.04,0.13-0.06,0.16-0.06c0.04,0,0.07,0.07,0.07,0.2C42.98,132.84,42.68,133.35,42.09,133.78z
			"/>
		<path class="st0" d="M45.39,126.96c0.16-0.04,0.28-0.05,0.35-0.05c0.12,0,0.21,0.04,0.29,0.11c0.01,0.02,0.04,0.04,0.07,0.08
			l0.03,0.01c0.2,0.05,0.3,0.34,0.3,0.87c0,0.19-0.02,0.48-0.05,0.87c-0.03,0.39-0.05,0.67-0.05,0.84s0.03,0.31,0.08,0.42l0.02,0.04
			c0.09,0.01,0.19,0.02,0.32,0.02c0.25,0,0.62-0.04,1.11-0.12c0.49-0.08,0.79-0.12,0.9-0.12h0.55v-0.76
			c0.01-0.09,0.02-0.35,0.03-0.76c0.03-0.91,0.08-1.46,0.15-1.65c0.12-0.06,0.25-0.09,0.39-0.09c0.26,0,0.48,0.08,0.66,0.25
			c0.18,0.17,0.28,0.37,0.28,0.59c0,0.01-0.03,0.86-0.1,2.55c-0.1,1.22-0.15,2.09-0.15,2.61v0.52c0,0.21-0.01,0.38-0.02,0.51
			c-0.01,0.13-0.04,0.26-0.09,0.39c-0.09,0.24-0.29,0.35-0.59,0.35c-0.08,0-0.18-0.01-0.31-0.03h-0.01c-0.1,0-0.16-0.02-0.2-0.06
			c-0.04-0.04-0.06-0.1-0.06-0.18l-0.01-2.66v-0.9l-0.46,0.04c-0.13,0.01-0.47,0.07-1.01,0.17c-0.54,0.09-0.9,0.14-1.08,0.14h-0.53
			l-0.04,0.53v1.06c0,0.52-0.01,0.89-0.04,1.1c-0.03,0.21-0.05,0.34-0.08,0.4l-0.03,0.01c-0.01,0.1-0.04,0.16-0.06,0.18
			c-0.03,0.03-0.06,0.04-0.1,0.04c-0.07,0-0.15-0.03-0.24-0.09c-0.09-0.06-0.15-0.13-0.18-0.19c-0.21-0.59-0.35-1.05-0.42-1.36
			l-0.09-0.44c-0.02-0.26-0.02-0.65-0.02-1.17c0-0.51,0.02-1.21,0.06-2.1c0.04-0.89,0.07-1.52,0.08-1.89
			C45.1,127.02,45.22,127,45.39,126.96z"/>
		<path class="st0" d="M58.87,133.92c0.04,0.09,0.06,0.18,0.06,0.28c0,0.09-0.03,0.18-0.09,0.25c-0.06,0.07-0.12,0.11-0.18,0.11
			c-0.04,0-0.08-0.01-0.11-0.04c-0.03-0.03-0.05-0.06-0.06-0.09c-0.01-0.03-0.03-0.06-0.05-0.08c-0.01-0.01-0.1-0.11-0.27-0.27
			l-1.28-2.45h-0.05h-0.07c-0.15,0-0.45,0.01-0.9,0.04c-0.45,0.03-0.77,0.04-0.96,0.04c-0.18,0-0.31-0.01-0.38-0.03l-0.08-0.28
			l-0.11,0.3c-0.4,1.2-0.86,2.12-1.36,2.74c-0.06,0.1-0.18,0.14-0.36,0.14c-0.08,0-0.14-0.01-0.19-0.03v-0.13
			c0-0.14,0.02-0.3,0.06-0.49c0.04-0.19,0.08-0.35,0.12-0.48c0.04-0.13,0.11-0.33,0.19-0.58c0.08-0.26,0.14-0.45,0.19-0.57
			c0.19-0.69,0.44-1.47,0.76-2.33l0.35-0.91c0.16-0.51,0.33-0.96,0.49-1.35c0.17-0.39,0.28-0.66,0.33-0.8
			c0.03-0.09,0.19-0.14,0.47-0.14c0.24,0,0.49,0.03,0.75,0.1c0.26,0.07,0.41,0.12,0.46,0.17L58.87,133.92z M55.81,128.29l-0.1-0.14
			c-0.14,0.28-0.24,0.48-0.31,0.59c-0.14,0.26-0.32,0.7-0.55,1.33c-0.1,0.26-0.2,0.53-0.31,0.8h0.52c0.51,0,0.89-0.01,1.13-0.03
			c0.24-0.02,0.39-0.05,0.44-0.1c0.01-0.02,0.02-0.04,0.02-0.04c0-0.1-0.18-0.65-0.53-1.63C55.99,128.68,55.89,128.42,55.81,128.29z
			"/>
		<path class="st0" d="M61.59,133.8c-0.07,0.15-0.24,0.23-0.52,0.23c-0.15,0-0.29-0.04-0.4-0.1s-0.17-0.16-0.17-0.26v-0.01
			l0.19-6.09l0.13-0.13c0.14-0.19,0.26-0.29,0.36-0.29c0.1,0,0.31,0.09,0.61,0.27s0.48,0.3,0.53,0.37c0.29,0.37,0.65,0.94,1.08,1.71
			s0.75,1.29,0.97,1.58l0.11,0.17l0.07-0.19c0.04-0.12,0.11-0.42,0.22-0.88c0.27-1.14,0.48-1.89,0.62-2.24
			c0.01-0.04,0.03-0.07,0.04-0.09c0.01-0.01,0.03-0.02,0.05-0.02c0.02,0,0.07,0.03,0.15,0.08c0.08,0.05,0.14,0.08,0.19,0.08
			c0.07,0.17,0.11,0.51,0.11,1.02s-0.03,1.08-0.08,1.72c-0.03,0.29-0.04,0.47-0.04,0.54l-0.13,2.16v0.79l-0.14,0.1
			c-0.17,0.07-0.32,0.11-0.44,0.11c-0.29,0-0.56-0.16-0.81-0.48c-0.27-0.34-0.49-0.72-0.65-1.14c-0.16-0.42-0.34-0.87-0.54-1.35
			c-0.2-0.48-0.37-0.81-0.51-1c-0.07-0.17-0.16-0.33-0.26-0.49c-0.1-0.16-0.18-0.28-0.22-0.37c-0.01-0.05-0.03-0.09-0.06-0.11
			c-0.03-0.02-0.06-0.03-0.09-0.03c-0.04,0-0.07,0.02-0.1,0.05c-0.03,0.03-0.05,0.1-0.05,0.19v0.01c-0.04,0.23-0.05,0.59-0.05,1.08
			l0.01,1.26C61.76,132.92,61.71,133.51,61.59,133.8z"/>
		<path class="st0" d="M68.12,128.37c0.12-0.39,0.44-0.73,0.94-1.02c0.5-0.29,1.02-0.44,1.55-0.44c0.78,0,1.32,0.32,1.62,0.95
			c0.05,0.1,0.11,0.19,0.19,0.26c0.06,0.06,0.1,0.11,0.12,0.14c0.02,0.04,0.03,0.11,0.03,0.21s-0.02,0.18-0.06,0.22
			c-0.04,0.04-0.1,0.06-0.19,0.06c-0.19,0-0.39-0.08-0.61-0.24s-0.32-0.3-0.32-0.42c0-0.09-0.07-0.2-0.2-0.33l-0.22-0.24l-0.36,0.01
			c-0.36,0.07-0.66,0.23-0.91,0.48c-0.25,0.25-0.44,0.54-0.56,0.86c-0.12,0.3-0.22,0.67-0.31,1.12c-0.11,0.54-0.17,1.01-0.17,1.41
			c0,0.63,0.14,1.09,0.42,1.39c0.28,0.3,0.7,0.47,1.26,0.53h0.01h0.04c0.21,0,0.42-0.1,0.63-0.29c0.22-0.19,0.32-0.39,0.32-0.59
			c0-0.13-0.05-0.25-0.14-0.34c-0.04-0.04-0.09-0.08-0.15-0.12c-0.23-0.01-0.46-0.07-0.67-0.18c-0.1-0.04-0.17-0.09-0.21-0.14
			c-0.05-0.05-0.07-0.09-0.07-0.12s0.01-0.05,0.03-0.08c0.07-0.07,0.24-0.13,0.5-0.17c0.26-0.04,1.03-0.12,2.32-0.24
			c0.04,0.06,0.07,0.16,0.11,0.29s0.06,0.27,0.06,0.41c0,0.06-0.01,0.11-0.02,0.14l-0.7,0.09c-0.12,0.02-0.21,0.07-0.26,0.13
			c-0.06,0.05-0.1,0.11-0.12,0.18c-0.04,0.14-0.07,0.37-0.07,0.69v0.1c0,0.17-0.02,0.36-0.07,0.58c-0.01,0.07-0.04,0.13-0.08,0.19
			c-0.05,0.06-0.09,0.11-0.12,0.15c-0.01,0.02-0.06,0.05-0.14,0.08c-0.07,0.03-0.12,0.05-0.15,0.07c-0.03,0.01-0.1,0.03-0.21,0.05
			c-0.11,0.02-0.18,0.03-0.23,0.04c-0.35,0.02-0.54,0.04-0.59,0.04c-0.07,0.01-0.16,0.01-0.29,0.01c-0.42,0-0.78-0.09-1.09-0.27
			s-0.55-0.42-0.73-0.73c-0.35-0.62-0.53-1.4-0.53-2.34C67.7,130.09,67.84,129.22,68.12,128.37z"/>
		<path class="st0" d="M85.59,133.92c0.04,0.09,0.06,0.18,0.06,0.28c0,0.09-0.03,0.18-0.09,0.25c-0.06,0.07-0.12,0.11-0.18,0.11
			c-0.04,0-0.08-0.01-0.11-0.04c-0.03-0.03-0.05-0.06-0.06-0.09c-0.01-0.03-0.03-0.06-0.05-0.08c-0.01-0.01-0.1-0.11-0.27-0.27
			l-1.28-2.45h-0.05h-0.07c-0.15,0-0.45,0.01-0.9,0.04c-0.45,0.03-0.77,0.04-0.96,0.04c-0.18,0-0.31-0.01-0.38-0.03l-0.08-0.28
			l-0.11,0.3c-0.4,1.2-0.86,2.12-1.36,2.74c-0.06,0.1-0.18,0.14-0.36,0.14c-0.08,0-0.14-0.01-0.19-0.03v-0.13
			c0-0.14,0.02-0.3,0.06-0.49c0.04-0.19,0.08-0.35,0.12-0.48c0.04-0.13,0.11-0.33,0.19-0.58c0.08-0.26,0.14-0.45,0.19-0.57
			c0.19-0.69,0.44-1.47,0.76-2.33l0.35-0.91c0.16-0.51,0.33-0.96,0.49-1.35c0.17-0.39,0.28-0.66,0.33-0.8
			c0.03-0.09,0.19-0.14,0.47-0.14c0.24,0,0.49,0.03,0.75,0.1c0.26,0.07,0.41,0.12,0.46,0.17L85.59,133.92z M82.53,128.29l-0.1-0.14
			c-0.14,0.28-0.24,0.48-0.31,0.59c-0.14,0.26-0.32,0.7-0.55,1.33c-0.1,0.26-0.2,0.53-0.31,0.8h0.52c0.51,0,0.89-0.01,1.13-0.03
			c0.24-0.02,0.39-0.05,0.44-0.1c0.01-0.02,0.02-0.04,0.02-0.04c0-0.1-0.18-0.65-0.53-1.63C82.71,128.68,82.61,128.42,82.53,128.29z
			"/>
		<path class="st0" d="M88.31,133.8c-0.07,0.15-0.24,0.23-0.52,0.23c-0.15,0-0.29-0.04-0.4-0.1s-0.17-0.16-0.17-0.26v-0.01
			l0.19-6.09l0.13-0.13c0.14-0.19,0.26-0.29,0.36-0.29c0.1,0,0.31,0.09,0.61,0.27s0.48,0.3,0.53,0.37c0.29,0.37,0.65,0.94,1.08,1.71
			s0.75,1.29,0.97,1.58l0.11,0.17l0.07-0.19c0.04-0.12,0.11-0.42,0.22-0.88c0.27-1.14,0.48-1.89,0.62-2.24
			c0.01-0.04,0.03-0.07,0.04-0.09c0.01-0.01,0.03-0.02,0.05-0.02c0.02,0,0.07,0.03,0.15,0.08c0.08,0.05,0.14,0.08,0.19,0.08
			c0.07,0.17,0.11,0.51,0.11,1.02s-0.03,1.08-0.08,1.72c-0.03,0.29-0.04,0.47-0.04,0.54l-0.13,2.16v0.79l-0.14,0.1
			c-0.17,0.07-0.32,0.11-0.44,0.11c-0.29,0-0.56-0.16-0.81-0.48c-0.27-0.34-0.49-0.72-0.65-1.14c-0.16-0.42-0.34-0.87-0.54-1.35
			c-0.2-0.48-0.37-0.81-0.51-1c-0.07-0.17-0.16-0.33-0.26-0.49c-0.1-0.16-0.18-0.28-0.22-0.37c-0.01-0.05-0.03-0.09-0.06-0.11
			c-0.03-0.02-0.06-0.03-0.09-0.03c-0.04,0-0.07,0.02-0.1,0.05c-0.03,0.03-0.05,0.1-0.05,0.19v0.01c-0.04,0.23-0.05,0.59-0.05,1.08
			l0.01,1.26C88.48,132.92,88.42,133.51,88.31,133.8z"/>
		<path class="st0" d="M99.29,131.98c-0.13,0.38-0.3,0.71-0.52,0.97s-0.49,0.5-0.83,0.69c-0.34,0.21-0.7,0.37-1.06,0.49
			c-0.36,0.12-0.78,0.24-1.25,0.33c-0.21-0.02-0.37-0.1-0.51-0.24c-0.24-0.24-0.38-0.65-0.42-1.25l-0.14-2.09v-0.23
			c0-0.62,0.05-1.44,0.14-2.45c0.05-0.54,0.08-0.86,0.08-0.95v-0.24l0.18-0.1c0.11-0.05,0.23-0.08,0.36-0.08s0.26,0.05,0.41,0.14
			c0.14,0.09,0.28,0.19,0.4,0.3c0.12,0.11,0.23,0.16,0.33,0.17h0.01c0.82,0.01,1.49,0.2,2,0.55c0.51,0.35,0.82,0.88,0.93,1.58
			c0.06,0.35,0.09,0.71,0.09,1.09C99.48,131.16,99.42,131.6,99.29,131.98z M95.91,133.34c0.34-0.12,0.8-0.35,1.38-0.69
			c0.72-0.4,1.08-1.04,1.08-1.9c0-0.4-0.08-0.79-0.24-1.18s-0.38-0.73-0.67-1.02c-0.12-0.15-0.45-0.25-0.99-0.32l-0.35-0.03
			l-0.04,0.37c-0.04,0.18-0.08,0.57-0.13,1.17l-0.15,2.58v1.08L95.91,133.34z"/>
		<path class="st0" d="M110.7,131.98c-0.13,0.38-0.3,0.71-0.52,0.97s-0.49,0.5-0.83,0.69c-0.34,0.21-0.7,0.37-1.06,0.49
			c-0.36,0.12-0.78,0.24-1.25,0.33c-0.21-0.02-0.37-0.1-0.51-0.24c-0.24-0.24-0.38-0.65-0.42-1.25l-0.14-2.09v-0.23
			c0-0.62,0.05-1.44,0.14-2.45c0.05-0.54,0.08-0.86,0.08-0.95v-0.24l0.18-0.1c0.11-0.05,0.23-0.08,0.36-0.08s0.26,0.05,0.41,0.14
			c0.14,0.09,0.28,0.19,0.4,0.3c0.12,0.11,0.23,0.16,0.33,0.17h0.01c0.82,0.01,1.49,0.2,2,0.55c0.51,0.35,0.82,0.88,0.93,1.58
			c0.06,0.35,0.09,0.71,0.09,1.09C110.89,131.16,110.83,131.6,110.7,131.98z M107.31,133.34c0.34-0.12,0.8-0.35,1.38-0.69
			c0.72-0.4,1.08-1.04,1.08-1.9c0-0.4-0.08-0.79-0.24-1.18s-0.38-0.73-0.67-1.02c-0.12-0.15-0.45-0.25-0.99-0.32l-0.35-0.03
			l-0.04,0.37c-0.04,0.18-0.08,0.57-0.13,1.17l-0.15,2.58v1.08L107.31,133.34z"/>
		<path class="st0" d="M114.97,134.53c-0.83-0.11-1.41-0.4-1.74-0.88c-0.34-0.48-0.51-1.26-0.51-2.33c0-2,0.07-3.24,0.2-3.73
			c0.05-0.18,0.22-0.28,0.5-0.28c0.15,0,0.28,0.03,0.41,0.08c0.12,0.05,0.21,0.12,0.25,0.19l-0.15,2.05l0.06,2.68
			c0.03,0.14,0.05,0.26,0.07,0.36c0.01,0.1,0.03,0.17,0.04,0.2s0.03,0.07,0.05,0.12s0.07,0.12,0.15,0.23v0.01
			c0.1,0.11,0.25,0.22,0.44,0.33c0.18,0.09,0.34,0.14,0.5,0.14s0.28-0.04,0.37-0.13c0.09-0.09,0.15-0.21,0.18-0.36
			c0.06-0.29,0.11-0.63,0.15-1.02l0.37-4.16l0.34-0.74c0.08-0.01,0.17-0.02,0.25-0.02c0.18,0,0.32,0.02,0.43,0.07
			c0.11,0.04,0.16,0.09,0.16,0.14l-0.12,3.31c-0.01,0.44-0.03,0.83-0.06,1.16c-0.03,0.33-0.09,0.67-0.18,1.02s-0.2,0.63-0.34,0.85
			c-0.14,0.22-0.33,0.39-0.57,0.53c-0.23,0.14-0.51,0.21-0.84,0.21C115.25,134.56,115.12,134.55,114.97,134.53z"/>
		<path class="st0" d="M125.48,133.92c0.04,0.09,0.06,0.18,0.06,0.28c0,0.09-0.03,0.18-0.09,0.25c-0.06,0.07-0.12,0.11-0.18,0.11
			c-0.04,0-0.08-0.01-0.11-0.04c-0.03-0.03-0.05-0.06-0.06-0.09c-0.01-0.03-0.03-0.06-0.05-0.08c-0.01-0.01-0.1-0.11-0.27-0.27
			l-1.28-2.45h-0.05h-0.07c-0.15,0-0.45,0.01-0.9,0.04c-0.45,0.03-0.77,0.04-0.96,0.04c-0.18,0-0.31-0.01-0.38-0.03l-0.08-0.28
			l-0.11,0.3c-0.4,1.2-0.86,2.12-1.36,2.74c-0.06,0.1-0.18,0.14-0.36,0.14c-0.08,0-0.14-0.01-0.19-0.03v-0.13
			c0-0.14,0.02-0.3,0.06-0.49c0.04-0.19,0.08-0.35,0.12-0.48c0.04-0.13,0.11-0.33,0.19-0.58c0.08-0.26,0.14-0.45,0.19-0.57
			c0.19-0.69,0.44-1.47,0.76-2.33l0.35-0.91c0.16-0.51,0.33-0.96,0.49-1.35c0.17-0.39,0.28-0.66,0.33-0.8
			c0.03-0.09,0.19-0.14,0.47-0.14c0.24,0,0.49,0.03,0.75,0.1c0.26,0.07,0.41,0.12,0.46,0.17L125.48,133.92z M122.42,128.29
			l-0.1-0.14c-0.14,0.28-0.24,0.48-0.31,0.59c-0.14,0.26-0.32,0.7-0.55,1.33c-0.1,0.26-0.2,0.53-0.31,0.8h0.52
			c0.51,0,0.89-0.01,1.13-0.03c0.24-0.02,0.39-0.05,0.44-0.1c0.01-0.02,0.02-0.04,0.02-0.04c0-0.1-0.18-0.65-0.53-1.63
			C122.6,128.68,122.49,128.42,122.42,128.29z"/>
		<path class="st0" d="M128.19,133.8c-0.07,0.15-0.24,0.23-0.52,0.23c-0.15,0-0.29-0.04-0.4-0.1s-0.17-0.16-0.17-0.26v-0.01
			l0.19-6.09l0.13-0.13c0.14-0.19,0.26-0.29,0.36-0.29c0.1,0,0.31,0.09,0.61,0.27s0.48,0.3,0.53,0.37c0.29,0.37,0.65,0.94,1.08,1.71
			s0.75,1.29,0.97,1.58l0.11,0.17l0.07-0.19c0.04-0.12,0.11-0.42,0.22-0.88c0.27-1.14,0.48-1.89,0.62-2.24
			c0.01-0.04,0.03-0.07,0.04-0.09c0.01-0.01,0.03-0.02,0.05-0.02c0.02,0,0.07,0.03,0.15,0.08c0.08,0.05,0.14,0.08,0.19,0.08
			c0.07,0.17,0.11,0.51,0.11,1.02s-0.03,1.08-0.08,1.72c-0.03,0.29-0.04,0.47-0.04,0.54l-0.13,2.16v0.79l-0.14,0.1
			c-0.17,0.07-0.32,0.11-0.44,0.11c-0.29,0-0.56-0.16-0.81-0.48c-0.27-0.34-0.49-0.72-0.65-1.14c-0.16-0.42-0.34-0.87-0.54-1.35
			c-0.2-0.48-0.37-0.81-0.51-1c-0.07-0.17-0.16-0.33-0.26-0.49c-0.1-0.16-0.18-0.28-0.22-0.37c-0.01-0.05-0.03-0.09-0.06-0.11
			c-0.03-0.02-0.06-0.03-0.09-0.03c-0.04,0-0.07,0.02-0.1,0.05c-0.03,0.03-0.05,0.1-0.05,0.19v0.01c-0.04,0.23-0.05,0.59-0.05,1.08
			l0.01,1.26C128.37,132.92,128.31,133.51,128.19,133.8z"/>
		<path class="st0" d="M135.62,133.8c-0.07,0.15-0.24,0.23-0.52,0.23c-0.15,0-0.29-0.04-0.4-0.1s-0.17-0.16-0.17-0.26v-0.01
			l0.19-6.09l0.13-0.13c0.14-0.19,0.26-0.29,0.36-0.29c0.1,0,0.31,0.09,0.61,0.27s0.48,0.3,0.53,0.37c0.29,0.37,0.65,0.94,1.08,1.71
			s0.75,1.29,0.97,1.58l0.11,0.17l0.07-0.19c0.04-0.12,0.11-0.42,0.22-0.88c0.27-1.14,0.48-1.89,0.62-2.24
			c0.01-0.04,0.03-0.07,0.04-0.09c0.01-0.01,0.03-0.02,0.05-0.02c0.02,0,0.07,0.03,0.15,0.08c0.08,0.05,0.14,0.08,0.19,0.08
			c0.07,0.17,0.11,0.51,0.11,1.02s-0.03,1.08-0.08,1.72c-0.03,0.29-0.04,0.47-0.04,0.54l-0.13,2.16v0.79l-0.14,0.1
			c-0.17,0.07-0.32,0.11-0.44,0.11c-0.29,0-0.56-0.16-0.81-0.48c-0.27-0.34-0.49-0.72-0.65-1.14c-0.16-0.42-0.34-0.87-0.54-1.35
			c-0.2-0.48-0.37-0.81-0.51-1c-0.07-0.17-0.16-0.33-0.26-0.49c-0.1-0.16-0.18-0.28-0.22-0.37c-0.01-0.05-0.03-0.09-0.06-0.11
			c-0.03-0.02-0.06-0.03-0.09-0.03c-0.04,0-0.07,0.02-0.1,0.05c-0.03,0.03-0.05,0.1-0.05,0.19v0.01c-0.04,0.23-0.05,0.59-0.05,1.08
			l0.01,1.26C135.79,132.92,135.74,133.51,135.62,133.8z"/>
		<path class="st0" d="M41.61,148.92c0.04,0.09,0.06,0.18,0.06,0.28c0,0.09-0.03,0.18-0.09,0.25c-0.06,0.07-0.12,0.11-0.18,0.11
			c-0.04,0-0.08-0.01-0.11-0.04c-0.03-0.03-0.05-0.06-0.06-0.09c-0.01-0.03-0.03-0.06-0.05-0.08c-0.01-0.01-0.1-0.11-0.27-0.27
			l-1.28-2.45h-0.05H39.5c-0.15,0-0.45,0.01-0.9,0.04c-0.45,0.03-0.77,0.04-0.96,0.04c-0.18,0-0.31-0.01-0.38-0.03l-0.08-0.28
			l-0.11,0.3c-0.4,1.2-0.86,2.12-1.36,2.74c-0.06,0.1-0.18,0.14-0.36,0.14c-0.08,0-0.14-0.01-0.19-0.03v-0.13
			c0-0.14,0.02-0.3,0.06-0.49c0.04-0.19,0.08-0.35,0.12-0.48c0.04-0.13,0.11-0.33,0.19-0.58c0.08-0.26,0.14-0.45,0.19-0.57
			c0.19-0.69,0.44-1.47,0.76-2.33l0.35-0.91c0.16-0.51,0.33-0.96,0.49-1.35c0.17-0.39,0.28-0.66,0.33-0.8
			c0.03-0.09,0.19-0.14,0.47-0.14c0.24,0,0.49,0.03,0.75,0.1c0.26,0.07,0.41,0.12,0.46,0.17L41.61,148.92z M38.55,143.29l-0.1-0.14
			c-0.14,0.28-0.24,0.48-0.31,0.59c-0.14,0.26-0.32,0.7-0.55,1.33c-0.1,0.26-0.2,0.53-0.31,0.8h0.52c0.51,0,0.89-0.01,1.13-0.03
			c0.24-0.02,0.39-0.05,0.44-0.1c0.01-0.02,0.02-0.04,0.02-0.04c0-0.1-0.18-0.65-0.53-1.63C38.73,143.68,38.62,143.42,38.55,143.29z
			"/>
		<path class="st0" d="M46.76,149.12c-0.07,0.14-0.18,0.21-0.33,0.21c-0.17,0-0.34-0.07-0.51-0.2c-0.17-0.14-0.26-0.28-0.27-0.45
			c-0.15-0.48-0.22-1.24-0.22-2.29v-1.42c0.01-0.03,0.03-0.21,0.07-0.55c0.03-0.23,0.09-0.7,0.19-1.4h-0.59
			c-0.06,0-0.19,0-0.39-0.01c-0.2-0.01-0.34-0.01-0.41-0.02c-0.07-0.01-0.17-0.02-0.3-0.04c-0.12-0.02-0.22-0.05-0.3-0.08
			c-0.07-0.03-0.14-0.07-0.21-0.12l0.09-0.56c0.15-0.01,0.32-0.01,0.51-0.01l3.62-0.24c0.26-0.03,0.48-0.04,0.65-0.04
			c0.32,0,0.52,0.05,0.62,0.15c0.05,0.04,0.08,0.11,0.08,0.19c0,0.18-0.04,0.31-0.12,0.4c-0.06,0.06-0.17,0.12-0.32,0.19
			c-0.16,0.07-0.53,0.11-1.11,0.13c-0.17,0.01-0.33,0.02-0.47,0.03l-0.04,0.97c-0.09,0.32-0.13,0.91-0.13,1.76l0.02,2.27
			C46.85,148.59,46.82,148.97,46.76,149.12z"/>
		<path class="st0" d="M54.76,149.12c-0.07,0.14-0.18,0.21-0.33,0.21c-0.17,0-0.34-0.07-0.51-0.2c-0.17-0.14-0.26-0.28-0.27-0.45
			c-0.15-0.48-0.22-1.24-0.22-2.29v-1.42c0.01-0.03,0.03-0.21,0.07-0.55c0.03-0.23,0.09-0.7,0.19-1.4h-0.59
			c-0.06,0-0.19,0-0.39-0.01c-0.2-0.01-0.34-0.01-0.41-0.02c-0.07-0.01-0.17-0.02-0.3-0.04c-0.12-0.02-0.22-0.05-0.3-0.08
			c-0.07-0.03-0.14-0.07-0.21-0.12l0.09-0.56c0.15-0.01,0.32-0.01,0.51-0.01l3.62-0.24c0.26-0.03,0.48-0.04,0.65-0.04
			c0.32,0,0.52,0.05,0.62,0.15c0.05,0.04,0.08,0.11,0.08,0.19c0,0.18-0.04,0.31-0.12,0.4c-0.06,0.06-0.17,0.12-0.32,0.19
			c-0.16,0.07-0.53,0.11-1.11,0.13c-0.17,0.01-0.33,0.02-0.47,0.03l-0.04,0.97c-0.09,0.32-0.13,0.91-0.13,1.76l0.02,2.27
			C54.86,148.59,54.83,148.97,54.76,149.12z"/>
		<path class="st0" d="M59.47,143.88c0.21-0.42,0.62-0.79,1.24-1.09c0.63-0.3,1.28-0.45,1.94-0.45c0.7,0,1.24,0.18,1.59,0.54
			c0.07,0.07,0.14,0.15,0.2,0.24c0.37,0.34,0.66,0.75,0.86,1.24c0.19,0.49,0.29,1,0.29,1.54c0,0.62-0.11,1.19-0.34,1.72
			c-0.23,0.53-0.58,0.97-1.04,1.31c-0.47,0.34-1.02,0.52-1.65,0.52c-1.01,0-1.84-0.37-2.5-1.12c-0.66-0.75-0.99-1.63-0.99-2.66
			C59.06,145.05,59.2,144.45,59.47,143.88z M61.29,143.35c-0.34,0.21-0.58,0.5-0.7,0.85l-0.53,1.5c0.01,0.74,0.16,1.34,0.42,1.8
			c0.27,0.46,0.72,0.82,1.35,1.08c0.18,0.08,0.37,0.12,0.57,0.12c0.2,0,0.38-0.05,0.55-0.14c0.4-0.24,0.72-0.64,0.97-1.2
			c0.25-0.56,0.37-1.15,0.37-1.77c0-0.73-0.17-1.35-0.51-1.86h-0.01c-0.32-0.46-0.78-0.69-1.38-0.69
			C62,143.03,61.63,143.13,61.29,143.35z"/>
		<path class="st0" d="M67.24,142.01l-0.02-0.1l0.14-0.05c0.13-0.03,0.26-0.04,0.4-0.04s0.34,0.03,0.62,0.08
			c0.28,0.05,0.5,0.08,0.65,0.08s0.36-0.02,0.62-0.05c0.26-0.03,0.44-0.05,0.56-0.05c0.52,0,0.95,0.13,1.28,0.38
			c0.33,0.25,0.5,0.62,0.5,1.09c0,0.4-0.1,0.78-0.29,1.12c-0.19,0.34-0.43,0.57-0.7,0.69l-0.1,0.04c0.9,1.54,1.49,2.75,1.77,3.62
			c0.04,0.12,0.07,0.23,0.07,0.32s-0.02,0.16-0.06,0.2c-0.04,0.04-0.11,0.06-0.2,0.06c-0.18,0-0.37-0.06-0.59-0.19
			c-0.22-0.13-0.36-0.27-0.45-0.43l-1.53-3.02c-0.01-0.04-0.02-0.08-0.05-0.1c-0.03-0.03-0.06-0.04-0.1-0.04s-0.08,0-0.12,0.01
			l-0.99,0.32c-0.03,0.05-0.05,0.11-0.06,0.18c-0.04,0.21-0.07,0.69-0.09,1.45l-0.03,1.43c-0.01,0.08-0.07,0.17-0.15,0.25
			c-0.12,0.12-0.25,0.19-0.39,0.19c-0.04,0-0.08,0-0.1-0.01c-0.45-0.46-0.67-1.23-0.67-2.31c0-0.39,0.04-1,0.12-1.85
			c0.08-0.84,0.12-1.46,0.12-1.85C67.39,142.88,67.34,142.41,67.24,142.01z M68.91,144.93c0.13,0,0.31-0.04,0.54-0.14
			c0.23-0.09,0.42-0.18,0.58-0.27l0.25-0.12c0.13-0.1,0.26-0.26,0.37-0.47c0.12-0.22,0.18-0.44,0.18-0.66c0-0.15-0.03-0.29-0.1-0.43
			l-0.02-0.01c-0.11-0.09-0.31-0.13-0.6-0.13c-0.18,0-0.39,0.01-0.61,0.04c-0.22,0.03-0.39,0.06-0.51,0.09s-0.18,0.05-0.2,0.05
			c-0.02,0.01-0.04,0.01-0.06,0.02h-0.01c-0.07,0-0.11,0.05-0.13,0.15c-0.03,0.15-0.04,0.49-0.04,1.02c0,0.35,0.01,0.56,0.02,0.62
			c0.01,0.06,0.03,0.1,0.06,0.12C68.67,144.89,68.77,144.93,68.91,144.93z"/>
		<path class="st0" d="M75.59,148.8c-0.07,0.15-0.24,0.23-0.52,0.23c-0.15,0-0.29-0.04-0.4-0.1s-0.17-0.16-0.17-0.26v-0.01
			l0.19-6.09l0.13-0.13c0.14-0.19,0.26-0.29,0.36-0.29c0.1,0,0.31,0.09,0.61,0.27s0.48,0.3,0.53,0.37c0.29,0.37,0.65,0.94,1.08,1.71
			s0.75,1.29,0.97,1.58l0.11,0.17l0.07-0.19c0.04-0.12,0.11-0.42,0.22-0.88c0.27-1.14,0.48-1.89,0.62-2.24
			c0.01-0.04,0.03-0.07,0.04-0.09c0.01-0.01,0.03-0.02,0.05-0.02c0.02,0,0.07,0.03,0.15,0.08c0.08,0.05,0.14,0.08,0.19,0.08
			c0.07,0.17,0.11,0.51,0.11,1.02s-0.03,1.08-0.08,1.72c-0.03,0.29-0.04,0.47-0.04,0.54l-0.13,2.16v0.79l-0.14,0.1
			c-0.17,0.07-0.32,0.11-0.44,0.11c-0.29,0-0.56-0.16-0.81-0.48c-0.27-0.34-0.49-0.72-0.65-1.14c-0.16-0.42-0.34-0.87-0.54-1.35
			c-0.2-0.48-0.37-0.81-0.51-1c-0.07-0.17-0.16-0.33-0.26-0.49c-0.1-0.16-0.18-0.28-0.22-0.37c-0.01-0.05-0.03-0.09-0.06-0.11
			c-0.03-0.02-0.06-0.03-0.09-0.03c-0.04,0-0.07,0.02-0.1,0.05c-0.03,0.03-0.05,0.1-0.05,0.19v0.01c-0.04,0.23-0.05,0.59-0.05,1.08
			l0.01,1.26C75.76,147.92,75.7,148.51,75.59,148.8z"/>
		<path class="st0" d="M85.6,141.95c0.07-0.01,0.18-0.02,0.31-0.02c0.25,0,0.41,0.04,0.49,0.12c0.04,0.04,0.07,0.1,0.07,0.18
			c0,0.1-0.05,0.19-0.14,0.29c-0.1,0.1-0.23,0.16-0.4,0.2c-0.25,0.06-0.46,0.13-0.63,0.21s-0.34,0.14-0.5,0.18
			c-0.16,0.04-0.4,0.06-0.7,0.06c-0.31,0-0.52,0.01-0.65,0.02c-0.12,0.01-0.21,0.04-0.25,0.09s-0.07,0.11-0.07,0.21
			c0,0.03,0.01,0.12,0.02,0.27s0.02,0.29,0.02,0.43c0,0.14-0.01,0.31-0.03,0.51v0.01v1.15l1.35-0.03h0.5c0.7,0,1.13,0.04,1.27,0.12
			c0.01,0.01,0.03,0.02,0.04,0.03s0.02,0.04,0.02,0.07c0,0.03-0.03,0.08-0.08,0.13c-0.05,0.05-0.15,0.12-0.27,0.18
			c-0.26,0.14-0.51,0.22-0.73,0.24c-0.22,0.02-0.42,0.03-0.59,0.03c-0.2,0-0.46-0.01-0.79-0.04c-0.33-0.03-0.54-0.04-0.63-0.04h-0.1
			l-0.06,1.76l0.04,0.34l1.36-0.03c0.81-0.02,1.29-0.01,1.46,0.02c0.25,0.05,0.37,0.15,0.37,0.29c0,0.1-0.03,0.19-0.09,0.25
			c-0.06,0.06-0.16,0.11-0.29,0.14c-0.09,0.02-0.42,0.06-0.99,0.12c-0.56,0.06-1.03,0.09-1.41,0.09c-0.73,0-1.22-0.12-1.45-0.35
			c-0.1-0.1-0.15-0.23-0.15-0.38v-0.09c0.08-0.79,0.12-1.57,0.12-2.37s-0.02-1.61-0.07-2.46c-0.05-0.85-0.07-1.31-0.07-1.37
			c0-0.06,0-0.11,0-0.14C83.33,142.27,84.56,142.14,85.6,141.95z"/>
		<path class="st0" d="M87.6,142.17c0.04-0.04,0.11-0.05,0.23-0.05c0.01,0,0.03,0,0.06,0c0.03,0,0.06,0.01,0.09,0.01
			c0.19,0.01,0.38,0.1,0.56,0.25c0.18,0.15,0.34,0.34,0.49,0.56c0.1,0.15,0.22,0.32,0.35,0.48s0.23,0.29,0.31,0.37
			s0.17,0.16,0.28,0.23c0.15-0.12,0.4-0.32,0.73-0.61c0.33-0.29,0.63-0.54,0.89-0.76c0.26-0.22,0.44-0.34,0.52-0.36
			c0.18-0.12,0.36-0.18,0.52-0.18c0.12,0,0.21,0.03,0.27,0.09c0.06,0.06,0.09,0.15,0.09,0.26c0,0.01,0,0.03-0.01,0.05l-1.65,1.88
			l-0.25,0.33l0.12,0.22l0.01,0.63c-0.1,0.35-0.15,0.8-0.15,1.34c0,0.17,0.01,0.42,0.02,0.77s0.02,0.6,0.02,0.76
			c0,0.41-0.03,0.74-0.09,1c-0.17,0.01-0.28,0.02-0.34,0.02c-0.32,0-0.53-0.06-0.65-0.18c-0.12-0.12-0.18-0.38-0.19-0.79l-0.06-2.56
			l0.07-0.75l-0.19-0.21c-0.1-0.09-0.37-0.38-0.81-0.87c-0.34-0.39-0.56-0.65-0.66-0.77c-0.23-0.32-0.39-0.56-0.46-0.7
			c-0.09-0.17-0.13-0.29-0.13-0.36C87.57,142.22,87.58,142.19,87.6,142.17z"/>
		<path class="st0" d="M96.54,148.49c0.52-0.04,0.87-0.16,1.06-0.34c0.13-0.13,0.2-0.3,0.2-0.5c0-0.29-0.14-0.57-0.42-0.85
			c-0.36-0.35-0.78-0.57-1.28-0.66c-0.49-0.08-0.94-0.32-1.33-0.72c-0.52-0.52-0.78-1.09-0.78-1.72c0-0.42,0.13-0.81,0.4-1.17
			c0.38-0.5,0.99-0.75,1.84-0.75c0.4,0,0.77,0.07,1.12,0.2s0.63,0.33,0.82,0.59c0.09,0.07,0.18,0.19,0.28,0.36
			c0.07,0.13,0.11,0.26,0.11,0.37c0,0.14-0.08,0.21-0.24,0.21c-0.09,0-0.15,0-0.19-0.01c-0.12-0.02-0.23-0.09-0.34-0.2
			c-0.03-0.02-0.09-0.08-0.17-0.19c-0.08-0.1-0.21-0.24-0.37-0.41c-0.16-0.17-0.34-0.25-0.55-0.25h-0.03
			c-0.04-0.01-0.08-0.01-0.14-0.01c-0.3,0-0.6,0.11-0.91,0.34c-0.31,0.22-0.48,0.49-0.52,0.81c-0.01,0.07-0.01,0.15-0.01,0.26
			c0,0.62,0.21,1.04,0.62,1.27c0.2,0.1,0.39,0.18,0.58,0.24c0.19,0.05,0.42,0.12,0.69,0.19c0.27,0.07,0.49,0.14,0.66,0.21
			c0.38,0.17,0.7,0.44,0.97,0.8c0.26,0.37,0.4,0.74,0.4,1.11c0,0.37-0.12,0.68-0.37,0.93c-0.1,0.1-0.23,0.2-0.38,0.3l-0.01,0.02
			c-0.11,0.2-0.38,0.3-0.8,0.3c-0.2,0-0.51-0.03-0.94-0.09c-0.43-0.06-0.72-0.09-0.89-0.09H95.5l-1.1,0.07
			c-0.05-0.03-0.1-0.07-0.16-0.12c-0.06-0.05-0.11-0.1-0.15-0.16s-0.09-0.11-0.12-0.16c0.23-0.14,0.59-0.21,1.09-0.21l1.06,0.02
			C96.3,148.5,96.45,148.5,96.54,148.49z"/>
		<path class="st0" d="M101.59,146.9c-0.55-0.01-0.86-0.07-0.93-0.15v-0.03c-0.03-0.19-0.04-0.31-0.04-0.36s0.01-0.08,0.03-0.1
			s0.07-0.03,0.13-0.03h0.13l0.01-0.01c0.22-0.03,1.06-0.04,2.52-0.04h0.18c0.24,0,0.41,0.01,0.5,0.04
			c0.09,0.03,0.16,0.08,0.21,0.17c-0.03,0.16-0.08,0.28-0.17,0.36c-0.12,0.12-0.41,0.19-0.86,0.19l-0.88-0.01
			C102.09,146.91,101.81,146.91,101.59,146.9z"/>
		<path class="st0" d="M112.16,148.92c0.04,0.09,0.06,0.18,0.06,0.28c0,0.09-0.03,0.18-0.09,0.25c-0.06,0.07-0.12,0.11-0.18,0.11
			c-0.04,0-0.08-0.01-0.11-0.04c-0.03-0.03-0.05-0.06-0.06-0.09c-0.01-0.03-0.03-0.06-0.05-0.08c-0.01-0.01-0.1-0.11-0.27-0.27
			l-1.28-2.45h-0.05h-0.07c-0.15,0-0.45,0.01-0.9,0.04c-0.45,0.03-0.77,0.04-0.96,0.04c-0.18,0-0.31-0.01-0.38-0.03l-0.08-0.28
			l-0.11,0.3c-0.4,1.2-0.86,2.12-1.36,2.74c-0.06,0.1-0.18,0.14-0.36,0.14c-0.08,0-0.14-0.01-0.19-0.03v-0.13
			c0-0.14,0.02-0.3,0.06-0.49c0.04-0.19,0.08-0.35,0.12-0.48c0.04-0.13,0.11-0.33,0.19-0.58c0.08-0.26,0.14-0.45,0.19-0.57
			c0.19-0.69,0.44-1.47,0.76-2.33l0.35-0.91c0.16-0.51,0.33-0.96,0.49-1.35c0.17-0.39,0.28-0.66,0.33-0.8
			c0.03-0.09,0.19-0.14,0.47-0.14c0.24,0,0.49,0.03,0.75,0.1c0.26,0.07,0.41,0.12,0.46,0.17L112.16,148.92z M109.1,143.29l-0.1-0.14
			c-0.14,0.28-0.24,0.48-0.31,0.59c-0.14,0.26-0.32,0.7-0.55,1.33c-0.1,0.26-0.2,0.53-0.31,0.8h0.52c0.51,0,0.89-0.01,1.13-0.03
			c0.24-0.02,0.39-0.05,0.44-0.1c0.01-0.02,0.02-0.04,0.02-0.04c0-0.1-0.18-0.65-0.53-1.63
			C109.28,143.68,109.18,143.42,109.1,143.29z"/>
		<path class="st0" d="M117.31,149.12c-0.07,0.14-0.18,0.21-0.33,0.21c-0.17,0-0.34-0.07-0.51-0.2c-0.17-0.14-0.26-0.28-0.27-0.45
			c-0.15-0.48-0.22-1.24-0.22-2.29v-1.42c0.01-0.03,0.03-0.21,0.07-0.55c0.03-0.23,0.09-0.7,0.19-1.4h-0.59
			c-0.06,0-0.19,0-0.39-0.01c-0.2-0.01-0.34-0.01-0.41-0.02c-0.07-0.01-0.17-0.02-0.3-0.04c-0.12-0.02-0.22-0.05-0.3-0.08
			c-0.07-0.03-0.14-0.07-0.21-0.12l0.09-0.56c0.15-0.01,0.32-0.01,0.51-0.01l3.62-0.24c0.26-0.03,0.48-0.04,0.65-0.04
			c0.32,0,0.52,0.05,0.62,0.15c0.05,0.04,0.08,0.11,0.08,0.19c0,0.18-0.04,0.31-0.12,0.4c-0.06,0.06-0.17,0.12-0.32,0.19
			c-0.16,0.07-0.53,0.11-1.11,0.13c-0.17,0.01-0.33,0.02-0.47,0.03l-0.04,0.97c-0.09,0.32-0.13,0.91-0.13,1.76l0.02,2.27
			C117.41,148.59,117.37,148.97,117.31,149.12z"/>
		<path class="st0" d="M122.57,146.9c-0.55-0.01-0.86-0.07-0.93-0.15v-0.03c-0.03-0.19-0.04-0.31-0.04-0.36s0.01-0.08,0.03-0.1
			s0.07-0.03,0.13-0.03h0.13l0.01-0.01c0.22-0.03,1.06-0.04,2.52-0.04h0.18c0.24,0,0.41,0.01,0.5,0.04
			c0.09,0.03,0.16,0.08,0.21,0.17c-0.03,0.16-0.08,0.28-0.17,0.36c-0.12,0.12-0.41,0.19-0.86,0.19l-0.88-0.01
			C123.07,146.91,122.79,146.91,122.57,146.9z"/>
		<path class="st0" d="M131.17,149.08l-0.1,0.03l0.01,0.03c-0.04,0.01-0.09,0.02-0.17,0.03c-0.07,0.01-0.7,0.05-1.87,0.13
			c-0.42,0.02-0.7,0.05-0.85,0.08c-0.1,0.05-0.19,0.08-0.3,0.08c-0.2,0-0.39-0.07-0.59-0.2s-0.34-0.27-0.43-0.41l-0.07-4.44l0.02-2
			c0.1-0.1,0.27-0.15,0.51-0.15s0.45,0.05,0.63,0.15c0.15,0.09,0.22,0.2,0.22,0.34l-0.09,5.85l0.18-0.03l2.72-0.12
			c0.12,0.01,0.21,0.04,0.27,0.1c0.06,0.06,0.09,0.14,0.09,0.24C131.37,148.92,131.3,149.02,131.17,149.08z"/>
		<path class="st0" d="M139.14,148.92c0.04,0.09,0.06,0.18,0.06,0.28c0,0.09-0.03,0.18-0.09,0.25c-0.06,0.07-0.12,0.11-0.18,0.11
			c-0.04,0-0.08-0.01-0.11-0.04c-0.03-0.03-0.05-0.06-0.06-0.09c-0.01-0.03-0.03-0.06-0.05-0.08c-0.01-0.01-0.1-0.11-0.27-0.27
			l-1.28-2.45h-0.05h-0.07c-0.15,0-0.45,0.01-0.9,0.04c-0.45,0.03-0.77,0.04-0.96,0.04c-0.18,0-0.31-0.01-0.38-0.03l-0.08-0.28
			l-0.11,0.3c-0.4,1.2-0.86,2.12-1.36,2.74c-0.06,0.1-0.18,0.14-0.36,0.14c-0.08,0-0.14-0.01-0.19-0.03v-0.13
			c0-0.14,0.02-0.3,0.06-0.49c0.04-0.19,0.08-0.35,0.12-0.48c0.04-0.13,0.11-0.33,0.19-0.58c0.08-0.26,0.14-0.45,0.19-0.57
			c0.19-0.69,0.44-1.47,0.76-2.33l0.35-0.91c0.16-0.51,0.33-0.96,0.49-1.35c0.17-0.39,0.28-0.66,0.33-0.8
			c0.03-0.09,0.19-0.14,0.47-0.14c0.24,0,0.49,0.03,0.75,0.1c0.26,0.07,0.41,0.12,0.46,0.17L139.14,148.92z M136.09,143.29
			l-0.1-0.14c-0.14,0.28-0.24,0.48-0.31,0.59c-0.14,0.26-0.32,0.7-0.55,1.33c-0.1,0.26-0.2,0.53-0.31,0.8h0.52
			c0.51,0,0.89-0.01,1.13-0.03c0.24-0.02,0.39-0.05,0.44-0.1c0.01-0.02,0.02-0.04,0.02-0.04c0-0.1-0.18-0.65-0.53-1.63
			C136.27,143.68,136.16,143.42,136.09,143.29z"/>
		<path class="st0" d="M141.56,142.1l0.21,1.05c0,0.02,0,0.05,0.01,0.09c0,0.04,0.01,0.08,0.01,0.1v0.15
			c0.07,1.54,0.12,2.4,0.15,2.57c0.01,0.03,0.02,0.05,0.04,0.07l0.07,0.08l0.07-0.08c0.04-0.04,0.07-0.08,0.09-0.12l0.71-1.9
			c0.06-0.15,0.11-0.34,0.15-0.55c0.04-0.21,0.08-0.37,0.1-0.48c0.03-0.11,0.07-0.2,0.14-0.27c0.07-0.07,0.15-0.11,0.25-0.11
			c0.1,0,0.25,0.04,0.46,0.11c0.01,0.01,0.03,0.02,0.04,0.03c0.1,0.1,0.17,0.33,0.21,0.72c0.06,0.49,0.1,1.03,0.13,1.62
			c0.03,0.74,0.09,1.16,0.19,1.25c0.02,0.02,0.05,0.03,0.08,0.03c0.03,0,0.07-0.01,0.12-0.04s0.13-0.12,0.25-0.27l0.26-0.79
			c0.18-0.53,0.35-1.03,0.53-1.52c0.19-0.5,0.4-0.96,0.63-1.4c0.01-0.01,0.02-0.03,0.04-0.06c0.02-0.02,0.06-0.03,0.1-0.03
			c0.09,0,0.18,0.04,0.26,0.11c0.09,0.07,0.13,0.15,0.13,0.23c0,0.01,0,0.01,0,0.02l-0.58,1.97c-0.11,0.31-0.22,0.7-0.34,1.17
			c-0.06,0.23-0.11,0.41-0.14,0.53l-0.53,1.89c-0.04,0.17-0.1,0.29-0.18,0.37c-0.08,0.08-0.19,0.12-0.31,0.12
			c-0.19,0-0.37-0.09-0.55-0.26c-0.18-0.18-0.26-0.38-0.26-0.63v-0.09c-0.04-0.17-0.1-0.51-0.19-1.02
			c-0.09-0.51-0.17-0.92-0.24-1.22l-0.02-0.01c-0.02-0.03-0.05-0.04-0.09-0.04c-0.04,0-0.08,0.02-0.11,0.05s-0.07,0.1-0.1,0.19
			l-0.8,2.94c-0.07,0.24-0.17,0.43-0.3,0.58c-0.14,0.14-0.28,0.21-0.42,0.21c-0.14,0-0.27-0.06-0.39-0.18
			c-0.07-0.07-0.15-0.18-0.22-0.32c-0.04-0.13-0.11-0.6-0.22-1.41s-0.22-1.72-0.32-2.75c-0.11-1.02-0.16-1.7-0.16-2.03v-0.07
			l-0.02-0.72l0.1-0.02c0.17-0.07,0.32-0.1,0.44-0.1C141.24,141.89,141.42,141.96,141.56,142.1z"/>
	</g>
	<line class="st1" x1="1.7" y1="114.41" x2="178.32" y2="114.41"/>
</g>
</svg>
