<?xml version="1.0" encoding="utf-8"?>
<!-- Generator: Adobe Illustrator 28.1.0, SVG Export Plug-In . SVG Version: 6.00 Build 0)  -->
<svg version="1.1" id="圖層_1" xmlns="http://www.w3.org/2000/svg" xmlns:xlink="http://www.w3.org/1999/xlink" x="0px" y="0px"
	 viewBox="0 0 100 100" style="enable-background:new 0 0 100 100;" xml:space="preserve">
<style type="text/css">
	.st0{fill:#FFFFFF;}
	.st1{fill:#3E3A39;}
</style>
<g>
	<path class="st0" d="M64.4,54.3v-9.7H53v-7.9c0-1.3,0.3-2.4,0.8-3.2c0.6-0.8,1.4-1.2,2.4-1.2h8.1V21.5H56c-4.9,0-8.5,1.3-10.9,3.8
		c-2.4,2.5-3.5,6.4-3.5,11.5v7.8h-6.1v9.7h6.1v24.9H53V54.3H64.4z"/>
</g>
<g>
	<ellipse class="st1" cx="50" cy="50" rx="50" ry="50"/>
	<g>
		<path class="st0" d="M74.2,63.7C74.2,63.6,74.2,63.6,74.2,63.7c-0.3-0.3-0.9-0.7-1.4-1c-0.2-0.1-0.4-0.2-0.6-0.3l0,0l0,0
			c-0.1-0.1-0.3-0.1-0.4-0.2c-1.6-0.6-4.8-1.8-7-2.7c-1.3-0.5-2.3-0.9-2.6-1c-0.9-0.5-1.8-0.5-2.7,0c-0.1,0.1-0.3,0.1-0.4,0.2
			c-0.4,0.2-0.7,0.4-1.1,0.7c-0.2,0.1-0.4,0.3-0.6,0.5c-0.8,0.7-1.7,1.4-2.2,2.1h-0.1c-0.5,0.5-0.9,0.8-1.5,0.7
			C43.5,57.3,38,44.9,38,44.9c-0.1-0.6,0.3-0.9,0.9-1.4H39c0.7-0.4,1.5-1.2,2.3-1.9c0.2-0.2,0.4-0.3,0.6-0.5c0.3-0.4,0.6-0.7,0.8-1
			c0.1-0.1,0.2-0.2,0.3-0.4c0.6-0.8,0.7-1.7,0.3-2.7c-0.1-0.3-0.3-1.4-0.6-2.7c-0.6-2.4-1.3-5.7-1.8-7.3c-0.2-0.6-0.3-1.2-0.6-1.6
			l0,0c-1.1-3.7-6.6-1.9-6.6-1.9c-0.3,0.1-0.6,0.1-0.9,0.3l0,0c0,0-4.4,1.4-6.8,7.4l0,0c-0.4,1.1-0.8,2.3-1,3.7
			c-0.2,1.4-0.2,3,0,4.5c0.3,3,1.4,6.2,3.1,9.5c0,0.1,0.1,0.2,0.1,0.2c0,0.1,0.1,0.1,0.1,0.3c0.1,0.3,0.4,0.7,0.8,1.3
			c2.4,4,9.1,13.9,18.1,20.6l0,0c0.3,0.2,0.5,0.4,0.7,0.5c0.1,0.1,0.2,0.1,0.2,0.2c0,0,0.1,0.1,0.2,0.1c3.1,2.1,6.1,3.6,9,4.3
			c1.5,0.4,3.1,0.7,4.5,0.6c1.4,0,2.7-0.2,3.8-0.5c6-1.5,8-5.4,8.2-5.8c0.1-0.2,0.2-0.3,0.3-0.5l0,0C74,70.1,76.1,65.8,74.2,63.7z"
			/>
	</g>
</g>
</svg>
